<svg xmlns="http://www.w3.org/2000/svg" xmlns:xlink="http://www.w3.org/1999/xlink" width="251" height="282.972" viewBox="0 0 251 282.972">
  <defs>
    <filter id="Oval" x="12.143" y="47.143" width="226.715" height="226.715" filterUnits="userSpaceOnUse">
      <feOffset dy="36" input="SourceAlpha"/>
      <feGaussianBlur stdDeviation="12" result="blur"/>
      <feFlood flood-color="#4957b8" flood-opacity="0.137"/>
      <feComposite operator="in" in2="blur"/>
      <feComposite in="SourceGraphic"/>
    </filter>
    <filter id="Oval-2" x="3.028" y="38.028" width="244.944" height="244.944" filterUnits="userSpaceOnUse">
      <feOffset dy="36" input="SourceAlpha"/>
      <feGaussianBlur stdDeviation="12" result="blur-2"/>
      <feFlood flood-color="#4957b8" flood-opacity="0.137"/>
      <feComposite operator="in" in2="blur-2"/>
      <feComposite in="SourceGraphic"/>
    </filter>
    <clipPath id="clip-path">
      <g transform="matrix(1, 0, 0, 1, 0, 0)" filter="url(#Oval)">
        <circle id="Oval-3" data-name="Oval" cx="73.507" cy="73.507" r="73.507" transform="translate(0 0)" fill="#fbe5f5" stroke="#fff" stroke-miterlimit="10" stroke-width="7.7"/>
      </g>
    </clipPath>
  </defs>
  <g id="Component_29_1" data-name="Component 29 – 1" transform="translate(15 15)">
    <g id="Circle" transform="translate(-25 -26)">
      <g id="Market" transform="translate(52.878 52.878)">
        <g transform="matrix(1, 0, 0, 1, -42.88, -41.88)" filter="url(#Oval-2)">
          <path id="Oval-4" data-name="Oval" d="M82.622,0A82.622,82.622,0,1,1,0,82.622,82.622,82.622,0,0,1,82.622,0Z" transform="translate(42.88 41.88)" fill="#f7fcf9" stroke="#fff" stroke-width="7.7"/>
        </g>
        <g id="Market-2" data-name="Market" transform="translate(9.115 9.115)" clip-path="url(#clip-path)">
          <g id="Group_2" data-name="Group 2" transform="translate(19.623 6.693)">
            <path id="Path_1" data-name="Path 1" d="M241.156,1251.5l-23.706,8.956-15.385,18.061-15.385,13.135v28.808l13.658,13.284,28.573,12.837,27.631,1.94,16.641-17.314,16.484-21.792-13.187-30.45-22.45-23.136Z" transform="translate(-186.68 -1251.5)" fill="#f7ffde"/>
            <path id="Path_2" data-name="Path 2" d="M305.9,1768.481l-2.429.644-1.552,2.339-.082,2.806,1,1.937,1.971,1.435,2.572.817,2.94.934,2.572.817,2.438-.035,1.937-1,1.552-2.339.082-2.806-1.612-1.928-2.4-1.368-1.654-.525-2.94-.934-1.653-.525Z" transform="translate(-282.383 -1681.147)" fill="#f3a359"/>
            <path id="Path_3" data-name="Path 3" d="M297.536,1698.781l-2.43.644-1.552,2.339-.082,2.806,1,1.937,1.971,1.435,2.572.817,2.94.934,2.572.817,2.438-.035,1.937-1,1.552-2.339.082-2.805-1.612-1.928-2.4-1.368-1.654-.525-2.94-.934-1.654-.525Z" transform="translate(-275.432 -1623.222)" fill="#f3a359"/>
            <path id="Path_4" data-name="Path 4" d="M293.6,1628.729l-2.654.573-1.634,2.313v2.831l1.166,1.989,2.217,1.513,2.858.908,3.267,1.038,2.858.908,2.683.043,2.1-.951,1.634-2.313v-2.832l-1.837-2-2.683-1.459-1.837-.584-3.267-1.038-1.837-.584Z" transform="translate(-271.972 -1565.004)" fill="#f3a359"/>
            <path id="Path_5" data-name="Path 5" d="M291.8,1559.029l-2.715.558-1.658,2.313.019,2.846,1.209,2.007,2.281,1.536,2.935.932,3.354,1.065,2.935.932,2.75.062,2.145-.941,1.658-2.314-.019-2.846-1.9-2.022-2.759-1.485-1.887-.6-3.354-1.065-1.887-.6Z" transform="translate(-270.409 -1507.078)" fill="#f3a359"/>
            <path id="Path_6" data-name="Path 6" d="M424.946,1701.444v-50.08l-7.065-18.839H400.612v3.925l2.826,3.454,5.652,1.256,2.669,7.065,1.1,5.809-6.751,3.14-3.768,4.71-3.925,7.065-24.463-2.177-.314,7.85,2.642,8.143,2.512,2.983,4.082,3.3,6.908,2.512,2.2.942-.471,8.948Z" transform="translate(-342.054 -1568.158)" fill="#faa85b"/>
            <g id="Group_1" data-name="Group 1" transform="translate(30.116 24.943)">
              <path id="Trazado_642" data-name="Trazado 642" d="M408.978,1482.757l-1.5,1.387-2.508.464-36.608.024-2.223-.921-1.129-1.847V1479.7l-.052-77.282.007-1.22,1.1-1.552,1.491-.465,37.849-.025,2.348.456L408.8,1402l.5,1.992.049,73.993,0,2.594Z" transform="translate(-364.954 -1399.151)" fill="#3c4959"/>
              <path id="Trazado_643" data-name="Trazado 643" d="M414.924,1507.566l-1.4,1.126-2.338.376-34.126.022-2.071-.749-1.05-1.5v-1.76l-.042-62.734.349-1.875.875-.749h1.2l35.284-.023h1.876l1.4.748.352,3.183.04,60.064v2.105Z" transform="translate(-372.385 -1432.85)" fill="#ebf4ee"/>
              <path id="Path_410" data-name="Path 410" d="M484.494,1867.881a4.281,4.281,0,0,1-1.529-.192,2.615,2.615,0,0,1-1.442-2.339,2.213,2.213,0,0,1,.785-1.66c.474-.477.349-.7,1.66-.788a4,4,0,0,1,1.554.442.706.706,0,0,1,.307.254,2.721,2.721,0,0,1,.761,1.748,1.967,1.967,0,0,1-.611,1.66A4.888,4.888,0,0,1,484.494,1867.881Z" transform="translate(-461.83 -1784.559)" fill="#f88518"/>
              <path id="Trazado_644" data-name="Trazado 644" d="M437.682,1415.227l-.451.231-.451.462v.231l.451.231.451.23h1.353l16.694-.011.451-.231v-.462l-.452-.462-.9-.23Z" transform="translate(-424.646 -1412.501)" fill="#f88518"/>
              <g id="Illustration_Fruits_Watermelon" data-name="Illustration Fruits Watermelon" transform="translate(6.484 32.041)">
                <path id="Trazado_402" data-name="Trazado 402" d="M404.846,1596.548s-1.512-.648-1.512.432,1.512,4.1,1.512,4.1,3.024,3.672,5.183,4.536,7.127,2.592,8.424,2.592,5.183-.216,6.911-1.08a18.3,18.3,0,0,0,5.4-4.32,25.951,25.951,0,0,0,3.24-6.48,40,40,0,0,0,.864-4.967v-2.16s-1.512-.864-1.512,0-26.782,7.991-26.782,7.991Z" transform="translate(-403.334 -1588.821)" fill="#a1bba2"/>
                <path id="Trazado_403" data-name="Trazado 403" d="M412.284,1598.747s10.031-3.858,13.607-4.752c3.552-.888,14.9-2.376,14.9-2.376s.216-.864,0,1.512a36.907,36.907,0,0,1-1.512,6.264,9.613,9.613,0,0,1-3.024,5.4c-2.808,2.808-3.887,3.456-6.264,3.672s-7.127.216-9.718-1.512-5.615-3.024-6.7-4.536A8.778,8.778,0,0,1,412.284,1598.747Z" transform="translate(-410.772 -1591.02)" fill="#ffe4ca"/>
                <ellipse id="Elipse_358" data-name="Elipse 358" cx="0.432" cy="0.848" rx="0.432" ry="0.848" transform="translate(17.845 9.437) rotate(-19.324)"/>
                <ellipse id="Elipse_359" data-name="Elipse 359" cx="0.432" cy="0.848" rx="0.432" ry="0.848" transform="translate(11.15 9.005) rotate(-19.324)"/>
                <ellipse id="Elipse_360" data-name="Elipse 360" cx="0.432" cy="0.848" rx="0.432" ry="0.848" transform="translate(15.469 7.493) rotate(-19.324)"/>
                <ellipse id="Elipse_361" data-name="Elipse 361" cx="0.432" cy="0.848" rx="0.432" ry="0.848" transform="translate(14.39 10.085) rotate(-19.324)"/>
                <ellipse id="Elipse_362" data-name="Elipse 362" cx="0.432" cy="0.848" rx="0.432" ry="0.848" transform="translate(18.925 7.061) rotate(-19.324)"/>
              </g>
            </g>
            <path id="Path_7" data-name="Path 7" d="M512.858,1697.582V1647.5l-7.065-18.839-13.187-.785-4.082.785-1.256,2.983.942,2.826,2.826,1.57L497,1637.3l2.669,7.065,1.1,5.809-6.751,3.14-3.768,4.71-3.925,7.065-6.908,32.5Z" transform="translate(-429.966 -1564.296)" fill="#fdaa5c"/>
          </g>
        </g>
      </g>
    </g>
    <g id="Ellipse_13" data-name="Ellipse 13" fill="none" stroke="#fec896" stroke-width="15">
      <circle cx="110.5" cy="110.5" r="110.5" stroke="none"/>
      <circle cx="110.5" cy="110.5" r="118" fill="none"/>
    </g>
  </g>
</svg>
