<svg xmlns="http://www.w3.org/2000/svg" xmlns:xlink="http://www.w3.org/1999/xlink" width="288.031" height="302.487" viewBox="0 0 288.031 302.487">
  <defs>
    <filter id="Oval" x="21.543" y="57.543" width="244.944" height="244.944" filterUnits="userSpaceOnUse">
      <feOffset dy="36" input="SourceAlpha"/>
      <feGaussianBlur stdDeviation="12" result="blur"/>
      <feFlood flood-color="#4957b8" flood-opacity="0.137"/>
      <feComposite operator="in" in2="blur"/>
      <feComposite in="SourceGraphic"/>
    </filter>
    <filter id="Oval-2" x="21.543" y="57.543" width="244.944" height="244.944" filterUnits="userSpaceOnUse">
      <feOffset dy="36" input="SourceAlpha"/>
      <feGaussianBlur stdDeviation="12" result="blur-2"/>
      <feFlood flood-color="#4957b8" flood-opacity="0.137"/>
      <feComposite operator="in" in2="blur-2"/>
      <feComposite in="SourceGraphic"/>
    </filter>
    <clipPath id="clip-path">
      <g transform="matrix(1, 0, 0, 1, 0, 0)" filter="url(#Oval)">
        <circle id="Oval-3" data-name="Oval" cx="82.622" cy="82.622" r="82.622" transform="translate(0 0)" fill="#fbe5f5" stroke="#fff" stroke-miterlimit="10" stroke-width="7.7"/>
      </g>
    </clipPath>
  </defs>
  <g id="Circle" transform="translate(9.153 9.153)">
    <g id="Circle-2" data-name="Circle" transform="translate(-0.638 -0.638)">
      <circle id="Base" cx="117.874" cy="117.874" r="117.874" transform="translate(17.626 17.626)" fill="none" stroke="#f7fafd" stroke-miterlimit="10" stroke-width="16.5"/>
      <circle id="Graph" cx="117.874" cy="117.874" r="117.874" transform="translate(270.362 37.517) rotate(99)" fill="none" stroke="#ffc996" stroke-linecap="round" stroke-linejoin="round" stroke-miterlimit="10" stroke-width="16" stroke-dasharray="572"/>
    </g>
    <g id="Market" transform="translate(52.24 52.24)">
      <g transform="matrix(1, 0, 0, 1, -61.39, -61.39)" filter="url(#Oval-2)">
        <path id="Oval-4" data-name="Oval" d="M82.622,0A82.622,82.622,0,1,1,0,82.622,82.622,82.622,0,0,1,82.622,0Z" transform="translate(61.39 61.39)" fill="#f7fcf9" stroke="#fff" stroke-width="7.7"/>
      </g>
      <g id="Market-2" data-name="Market" clip-path="url(#clip-path)">
        <g id="Illustration_1" data-name="Illustration 1" transform="translate(-1152.624 -221.122)">
          <path id="Trazado_649" data-name="Trazado 649" d="M1302.121,335.661,1291.7,355.017l-5.955,13.4,8.189,8.189,11.167,18.612,19.356,5.956H1338.6l21.59,8.189,14.145-5.956,25.312-14.889V367.673l-6.7-12.656-8.934-24.567-17.866-11.911h-42.432l-13.4,7.444Z" transform="translate(-96.391 -58.509)" fill="#f7ffde"/>
          <g id="sandia" transform="translate(1162 250.109)">
            <path id="Path_402" data-name="Path 402" d="M1166.153,310.673s-4.66-1.08-4.107,2.014,6.436,10.975,6.436,10.975,10.545,8.962,17.173,10.328,21.741,3.763,25.453,3.1,14.734-3.28,19.238-6.642,11.436-10.988,13.246-15.142,5.712-14.431,5.951-20.219.257-12.814-.076-14.67l-1.109-6.186s-4.773-1.7-4.33.776-72.594,36.636-72.594,36.636Z" transform="translate(-1162 -273.659)" fill="#a1bba2"/>
            <path id="Path_403" data-name="Path 403" d="M1180.788,315.932s26.747-16.2,36.527-20.594c9.716-4.368,41.458-14.455,41.458-14.455s.175-2.585.776,4.329-1.114,18.714-1.114,18.714.712,7.535-5.887,17.015-9.358,11.893-16.052,13.731-20.3,4.278-28.607.66-17.634-5.776-21.5-9.551S1180.788,315.932,1180.788,315.932Z" transform="translate(-1176.635 -278.918)" fill="#ffe4ca"/>
            <ellipse id="Ellipse_358" data-name="Ellipse 358" cx="1.258" cy="2.467" rx="1.258" ry="2.467" transform="translate(51.805 33.524) rotate(-29.488)"/>
            <ellipse id="Ellipse_359" data-name="Ellipse 359" cx="1.258" cy="2.467" rx="1.258" ry="2.467" transform="translate(32.41 35.724) rotate(-29.488)"/>
            <ellipse id="Ellipse_360" data-name="Ellipse 360" cx="1.258" cy="2.467" rx="1.258" ry="2.467" transform="translate(44.004 29.177) rotate(-29.488)"/>
            <ellipse id="Ellipse_361" data-name="Ellipse 361" cx="1.258" cy="2.467" rx="1.258" ry="2.467" transform="translate(42.242 37.154) rotate(-29.488)"/>
            <ellipse id="Ellipse_362" data-name="Ellipse 362" cx="1.258" cy="2.467" rx="1.258" ry="2.467" transform="translate(53.679 26.166) rotate(-29.488)"/>
          </g>
          <g id="tomate" transform="translate(1236.675 267.465)">
            <path id="Path_427" data-name="Path 427" d="M1499.834,434.441c.1-9.437,3.212-15.049,17.87-19.437a15,15,0,0,1,9.723.486c14.437,6.511,24.137,13.062,22.731,23.828a29.221,29.221,0,0,1-9.605,17.009c-5.02,3.983-10.744,4.591-17.988,3.889a33.8,33.8,0,0,1-4.861-.486C1506.125,456.681,1499.717,446.116,1499.834,434.441Z" transform="translate(-1499.833 -400.66)" fill="#ffae66"/>
            <path id="Path_428" data-name="Path 428" d="M1569.649,367.733s1.945,0,7.292-8.264c-2.917,2.429-12.4,3.646-12.4,3.646a62.793,62.793,0,0,1,1.7-10.938c-2.22,0-4.861,1.944-6.147,6.375l-.66,3.347s-13.612-3.889-16.043-.486a27.418,27.418,0,0,1,9.723,3.4c-10.664,2.479-11.9,5.985-13.124,6.806,6.32-2.917,3.89-2.917,16.286-2.188,1.58,3.95.486,8.75-1.257,12.452a13.7,13.7,0,0,0,.286,3.591c4.619-3.16,9.237-14.1,9.237-14.1s4.375,1.459,12.154,10.7C1578.157,376.728,1569.649,367.733,1569.649,367.733Z" transform="translate(-1531.115 -352.177)" fill="#a1bba2"/>
          </g>
          <g id="bananas" transform="translate(1185.029 292.639)">
            <g id="Group_982" data-name="Group 982" transform="translate(0 5.33)">
              <path id="Path_404" data-name="Path 404" d="M1307.139,492.337c-.807-1.345-2.363-2.434-3.782-2.1-.5.118-.989.839-1.409,1.194a7.07,7.07,0,0,0-2.248,3.69c-1.31,4.88-2.053,13.7-4.677,18.773s-6.467,13.332-11.532,15.4a99.032,99.032,0,0,1-10.8,3.552c-.056.014-.106.025-.162.035-.55.089-3.981.707-5.273,2.432a4.31,4.31,0,0,0-1.041,1.955,2.19,2.19,0,0,0,.586,1.922,13.686,13.686,0,0,0,8.816,2.966c6.006-.192,14.735-.1,18.2-1.609s9.567-5.732,11.911-10.426a50.37,50.37,0,0,0,5.054-18.49c.37-6.758-.919-8.73-1.606-13.514A15.545,15.545,0,0,0,1307.139,492.337Z" transform="translate(-1266.183 -490.177)" fill="#fdce51"/>
              <g id="Group_981" data-name="Group 981" transform="translate(0.676 0.183)">
                <path id="Path_405" data-name="Path 405" d="M1306.065,491.678a49.1,49.1,0,0,1,1.809,14.252c-.191,4.912-1.94,9.492-4.123,13.837A38.323,38.323,0,0,1,1296.5,530.2a26.232,26.232,0,0,1-11.541,6.208c-5.026,1.394-10.52,1.672-15.7,2.017a2.348,2.348,0,0,0,0,.626c9.121-.607,19.492-.641,26.807-6.816a35.354,35.354,0,0,0,8.054-10.534,39.437,39.437,0,0,0,4.8-13.687c.7-5.785-1.1-11.419-2.482-17.007a.725.725,0,0,0-.417.209Z" transform="translate(-1269.24 -491.003)"/>
              </g>
            </g>
            <g id="Group_984" data-name="Group 984" transform="translate(34.506 4.655)">
              <path id="Path_406" data-name="Path 406" d="M1429.99,487.587c-1.8-.74-4.169-.663-5.333.73-.407.487-.359,1.574-.515,2.239a8.8,8.8,0,0,0,.515,5.354c2.336,5.841,8.176,15.185,9.344,22.194s3.5,18.1,0,23.943a123.2,123.2,0,0,1-8.106,11.593,1.835,1.835,0,0,1-.136.156c-.481.5-3.438,3.675-3.438,6.358a5.361,5.361,0,0,0,.422,2.729,2.725,2.725,0,0,0,2.016,1.478,17.044,17.044,0,0,0,11-3.622c5.84-4.673,14.6-11.1,16.937-15.185s5.254-12.849,4.089-19.274a62.661,62.661,0,0,0-8.76-22.194c-4.671-7.009-7.429-8.013-11.681-12.264A19.351,19.351,0,0,0,1429.99,487.587Z" transform="translate(-1422.29 -487.123)" fill="#fdce51"/>
              <g id="Group_983" data-name="Group 983" transform="translate(1.078 0.607)">
                <path id="Path_407" data-name="Path 407" d="M1431.385,493.967a56.142,56.142,0,0,1,15.792,24.567c2.883,9.762,2.319,20.848-2.925,29.832-2.875,4.926-13.142,13.372-17.085,17.447l.35.349c4.089-2.336,14.268-11.759,17.129-16.177a33.773,33.773,0,0,0,5.2-14.589c1.18-10.205-2.256-20.915-7.349-29.733-2.787-4.825-6.408-8.518-9.911-12.851a16.441,16.441,0,0,0-3.547-2.943l-.583.584Z" transform="translate(-1427.167 -489.869)"/>
              </g>
            </g>
            <path id="Path_408" data-name="Path 408" d="M1418.586,471.916l-4.095-1.755,1.17-2.925,4.094-1.17-.585,5.264Z" transform="translate(-1381.709 -466.066)"/>
          </g>
        </g>
      </g>
    </g>
  </g>
</svg>
