<svg id="shopping-basket-solid" xmlns="http://www.w3.org/2000/svg" width="12.622" height="10.097" viewBox="0 0 12.622 10.097">
  <path id="shopping-basket-solid-2" data-name="shopping-basket-solid" d="M12.622,36.144V36.5a.534.534,0,0,1-.526.541h-.175l-.572,4.119a1.062,1.062,0,0,1-1.041.929H2.315a1.062,1.062,0,0,1-1.041-.929L.7,37.045H.526A.534.534,0,0,1,0,36.5v-.361A.534.534,0,0,1,.526,35.6H2l2.34-3.309a.689.689,0,0,1,.98-.159.735.735,0,0,1,.155,1.007L3.736,35.6H8.887l-1.74-2.461A.735.735,0,0,1,7.3,32.135a.689.689,0,0,1,.98.159l2.34,3.309H12.1A.534.534,0,0,1,12.622,36.144ZM6.837,40.11V37.586a.526.526,0,1,0-1.052,0V40.11a.526.526,0,1,0,1.052,0Zm2.454,0V37.586a.526.526,0,1,0-1.052,0V40.11a.526.526,0,1,0,1.052,0Zm-4.909,0V37.586a.526.526,0,1,0-1.052,0V40.11a.526.526,0,1,0,1.052,0Z" transform="translate(0 -31.997)" fill="#fff"/>
</svg>
