<svg xmlns="http://www.w3.org/2000/svg" xmlns:xlink="http://www.w3.org/1999/xlink" width="152.168" height="174.794" viewBox="0 0 152.168 174.794">
  <defs>
    <linearGradient id="linear-gradient" x1="1.07" y1="0.924" x2="0.957" y2="0.649" gradientUnits="objectBoundingBox">
      <stop offset="0" stop-color="#c8d4de" stop-opacity="0"/>
      <stop offset="1" stop-color="#deeaf4"/>
    </linearGradient>
    <linearGradient id="linear-gradient-2" x1="0.374" y1="1" x2="-0.069" y2="0.564" gradientUnits="objectBoundingBox">
      <stop offset="0" stop-color="#80c9c7" stop-opacity="0"/>
      <stop offset="1" stop-color="#3e80b3"/>
    </linearGradient>
    <linearGradient id="linear-gradient-3" x1="0.5" x2="0.5" y2="1" gradientUnits="objectBoundingBox">
      <stop offset="0" stop-color="#e8f1f5"/>
      <stop offset="1" stop-color="#e5eaf0"/>
    </linearGradient>
    <linearGradient id="linear-gradient-9" x1="0.647" y1="-0.056" x2="1" y2="0.887" gradientUnits="objectBoundingBox">
      <stop offset="0" stop-color="#fdaa5c"/>
      <stop offset="1" stop-color="#fac899"/>
    </linearGradient>
    <linearGradient id="linear-gradient-10" x1="-1.077" y1="0.454" x2="0.818" y2="0.371" gradientUnits="objectBoundingBox">
      <stop offset="0" stop-color="#fdca9b"/>
      <stop offset="1" stop-color="#f88518"/>
    </linearGradient>
    <linearGradient id="linear-gradient-11" x1="0.5" x2="0" y2="0.9" gradientUnits="objectBoundingBox">
      <stop offset="0" stop-color="#f1d4b9"/>
      <stop offset="1" stop-color="#fdaa5c"/>
    </linearGradient>
    <linearGradient id="linear-gradient-12" x1="2.103" y1="0.423" x2="0.2" y2="0.423" xlink:href="#linear-gradient-10"/>
  </defs>
  <g id="error_location_icon" transform="translate(-5.725 -5.859)">
    <g id="shadow" transform="translate(27.07 55.676)">
      <path id="shadow-2" data-name="shadow" d="M1.759,123.565c1.348,0,37.594-8.945,37.594-8.945l36.005-3.168,44.967-.613L104.13,23.7,93.451,0,1.759,110.387S-1.665,123.565,1.759,123.565Z" transform="translate(-0.237)" fill="url(#linear-gradient)"/>
      <path id="shadow-3" data-name="shadow" d="M1.759,123.565c1.348,0,37.594-8.945,37.594-8.945l36.005-3.168,44.967-.613L104.13,23.7,93.451,0,1.759,110.387S-1.665,123.565,1.759,123.565Z" transform="translate(-0.237)" fill="rgba(216,216,216,0.36)" style="mix-blend-mode: overlay;isolation: isolate"/>
    </g>
    <g id="map" transform="translate(8.56 66.911) rotate(-9)">
      <g id="Combined_Shape" data-name="Combined Shape" transform="translate(2.227 0)" fill="#ade1f1" stroke-miterlimit="10">
        <path d="M 74.82514953613281 112.6153030395508 C 74.79940795898438 112.6153030395508 74.77352905273438 112.6149597167969 74.74756622314453 112.6142959594727 C 74.72233581542969 112.6149215698242 74.69712829589844 112.615234375 74.67201232910156 112.615234375 C 74.34487915039063 112.615234375 74.0206298828125 112.5631637573242 73.70828247070313 112.4605026245117 L 37.77606201171875 100.6379470825195 L 1.844430088996887 112.4602966308594 C 1.53203010559082 112.563117980957 1.207580089569092 112.6152801513672 0.880280077457428 112.6153030395508 C 0.07213009893894196 112.6153182983398 -0.6924698948860168 112.3032684326172 -1.27268660068512 111.7366333007813 C -1.870686531066895 111.1526336669922 -2.200003147125244 110.3701019287109 -2.200003147125244 109.5331802368164 L -2.200003147125244 12.99573230743408 C -2.200003147125244 11.66219902038574 -1.348986625671387 10.48594951629639 -0.08235323429107666 10.06879901885986 L 36.73508071899414 -2.045000791549683 C 37.04803085327148 -2.147884130477905 37.37228012084961 -2.199934005737305 37.69939804077148 -2.199934005737305 C 37.72488784790039 -2.199934005737305 37.75046539306641 -2.199611186981201 37.77607345581055 -2.198968648910522 C 37.80168533325195 -2.199611186981201 37.8272705078125 -2.199934005737305 37.85276412963867 -2.199934005737305 C 38.17984771728516 -2.199934005737305 38.50408172607422 -2.147884130477905 38.81644821166992 -2.045200824737549 L 74.74868011474609 9.77736759185791 L 110.6803131103516 -2.045000791549683 C 110.9927444458008 -2.147834062576294 111.3172149658203 -2.200000762939453 111.6445159912109 -2.200000762939453 C 113.3429489135742 -2.200000762939453 114.7247314453125 -0.8173674345016479 114.7247314453125 0.88211590051651 L 114.7247314453125 97.41956329345703 C 114.7247314453125 98.75309753417969 113.8737106323242 99.92935180664063 112.6070785522461 100.3464965820313 L 75.78966522216797 112.4602966308594 C 75.47633361816406 112.5632476806641 75.15211486816406 112.6153030395508 74.82514953613281 112.6153030395508 Z" stroke="none"/>
        <path d="M 0.8802391886711121 110.4152984619141 C 0.9711645841598511 110.4152984619141 1.064233183860779 110.4010009765625 1.156838417053223 110.3705215454102 L 37.77606201171875 98.32192230224609 L 74.395263671875 110.3705215454102 C 74.48795318603516 110.4009780883789 74.58104705810547 110.4152297973633 74.6719970703125 110.4152297973633 C 74.69773101806641 110.4152297973633 74.72330474853516 110.4140853881836 74.74864196777344 110.4118499755859 C 74.77394104003906 110.4141006469727 74.7994384765625 110.4152984619141 74.82514190673828 110.4152984619141 C 74.91616058349609 110.4152984619141 75.00933837890625 110.4010009765625 75.10206604003906 110.3705215454102 L 111.9189147949219 98.25689697265625 C 112.2802352905273 98.13790130615234 112.5247421264648 97.80037689208984 112.5247421264648 97.41957092285156 L 112.5247421264648 0.8821242451667786 C 112.5247421264648 0.3796043395996094 112.1130294799805 1.300048825214617e-05 111.6445236206055 1.300048825214617e-05 C 111.553596496582 1.300048825214617e-05 111.4604949951172 0.01431955117732286 111.3678894042969 0.04479923099279404 L 74.74866485595703 12.09337425231934 L 38.12946319580078 0.04479923099279404 C 38.03678512573242 0.01432872284203768 37.94368743896484 5.860595774720423e-05 37.85276412963867 5.860595774720423e-05 C 37.82701110839844 5.860595774720423e-05 37.80142974853516 0.00120357668492943 37.77608871459961 0.003449230920523405 C 37.75072860717773 0.001202955609187484 37.72515106201172 5.860595774720423e-05 37.69938659667969 5.860595774720423e-05 C 37.60843658447266 5.860595774720423e-05 37.51531600952148 0.01433110982179642 37.42266464233398 0.04479923099279404 L 0.605838418006897 12.15839958190918 C 0.2444884330034256 12.27739906311035 1.343383792118402e-05 12.61492443084717 1.343383792118402e-05 12.99572467803955 L 1.343383792118402e-05 109.5331726074219 C 1.343383792118402e-05 110.0356979370117 0.4117498397827148 110.4153060913086 0.8802391886711121 110.4152984619141 M 74.82514190673828 114.815299987793 C 74.79888153076172 114.815299987793 74.77255249023438 114.8150939941406 74.74618530273438 114.814697265625 C 74.72141265869141 114.8150482177734 74.69668579101563 114.8152236938477 74.67198944091797 114.8152236938477 C 74.11143493652344 114.8152236938477 73.55633544921875 114.7262496948242 73.02214050292969 114.5507736206055 L 37.77606201171875 102.9539642333984 L 2.532013416290283 114.5501022338867 C 1.997413396835327 114.7260513305664 1.441588401794434 114.815299987793 0.88023841381073 114.815299987793 C -2.031286478042603 114.815299987793 -4.399986743927002 112.4457473754883 -4.399986743927002 109.5331726074219 L -4.399986743927002 12.99572467803955 C -4.399986743927002 10.71012401580811 -2.941386461257935 8.694124221801758 -0.7704615592956543 7.979199409484863 L 36.04748916625977 -4.134775638580322 C 36.58253860473633 -4.310775756835938 37.13821411132813 -4.399950981140137 37.69938659667969 -4.399950981140137 C 37.72490692138672 -4.399950981140137 37.75048065185547 -4.399760246276855 37.77608108520508 -4.399383544921875 C 37.80168151855469 -4.399760246276855 37.82724761962891 -4.399950981140137 37.85276412963867 -4.399950981140137 C 38.41378784179688 -4.399950981140137 38.96933746337891 -4.310800552368164 39.50393676757813 -4.135000705718994 L 74.74866485595703 7.461334705352783 L 109.9927139282227 -4.134775638580322 C 110.5273132324219 -4.310725688934326 111.0831604003906 -4.399975776672363 111.6445159912109 -4.399975776672363 C 114.556037902832 -4.399975776672363 116.9247360229492 -2.030425786972046 116.9247360229492 0.8821242451667786 L 116.9247360229492 97.41957092285156 C 116.9247360229492 99.70514678955078 115.4661865234375 101.7211227416992 113.2952880859375 102.4360733032227 L 76.47724151611328 114.5501022338867 C 75.94136047363281 114.7262268066406 75.38596343994141 114.815299987793 74.82514190673828 114.815299987793 Z" stroke="none" fill="#707070"/>
      </g>
      <g id="Group_3" data-name="Group 3" transform="translate(2.123 0)">
        <path id="Rectangle_47" data-name="Rectangle 47" d="M0,13a.881.881,0,0,1,.606-.837L37.423.045A.881.881,0,0,1,38.58.882V97.42a.881.881,0,0,1-.606.837L1.157,110.371A.881.881,0,0,1,0,109.533Z" transform="translate(0.103)" fill="#ade1f1"/>
        <path id="Rectangle_47_Copy_6" data-name="Rectangle 47 Copy 6" d="M0,13a.881.881,0,0,1,.606-.84L37.424.045A.881.881,0,0,1,38.581.88l.1,37.946a.881.881,0,0,1-.606.84L1.257,51.78A.881.881,0,0,1,.1,50.945Z" transform="translate(0 58.592)" fill="#adf1af"/>
        <path id="Rectangle_47_Copy_2" data-name="Rectangle 47 Copy 2" d="M0,13a.881.881,0,0,1,.606-.837L37.423.045A.881.881,0,0,1,38.58.882V97.42a.881.881,0,0,1-.606.837L1.157,110.371A.881.881,0,0,1,0,109.533Z" transform="translate(74.048)" fill="#ade1f1"/>
        <path id="Rectangle_47_Copy_8" data-name="Rectangle 47 Copy 8" d="M0,0,12.445,8.776,37.8,1.075a.881.881,0,0,1,1.138.855l-.3,22.871a.881.881,0,0,1-.606.826L1.206,37.744a.881.881,0,0,1-1.157-.836Z" transform="translate(73.997 72.628)" fill="#adf1af"/>
        <path id="Rectangle_47_Copy" data-name="Rectangle 47 Copy" d="M38.58,13a.881.881,0,0,0-.606-.837L1.157.045A.881.881,0,0,0,0,.882V97.42a.881.881,0,0,0,.606.837l36.817,12.114a.881.881,0,0,0,1.157-.837Z" transform="translate(37.076)" fill="#9ad6e9"/>
        <path id="Rectangle_47_Copy_7" data-name="Rectangle 47 Copy 7" d="M27.55,29.747a.881.881,0,0,1-.513-.774L26.405,8.3,1.328.045A.881.881,0,0,0,.171.88L0,58.124a.881.881,0,0,0,.606.84L37.425,71.079a.881.881,0,0,0,1.157-.835l.106-35.383Z" transform="translate(37.078 39.293)" fill="#9ae99c"/>
      </g>
      <path id="Path_2" data-name="Path 2" d="M0,33,37.767,21.938,37.417,0l8.561,3.014L66.516,8.765l-.038,23.016L76.55,35.193l11.727,8.625,28.5-8.311" transform="translate(0 37.465)" fill="none" stroke="#fff" stroke-linejoin="round" stroke-miterlimit="10" stroke-width="6.6"/>
      <path id="Path_3" data-name="Path 3" d="M13.677,42.288.351,37.011,0,18.5,9.278,14.94,9.551,0" transform="translate(22.742 1.592)" fill="none" stroke="#fff" stroke-linejoin="round" stroke-miterlimit="10" stroke-width="3.3"/>
      <path id="Path_4" data-name="Path 4" d="M0,0,10.652,11.124l10.823-3L59.105,21.173l-.3,24.308" transform="translate(18.055 67.175)" fill="none" stroke="#fff" stroke-linejoin="round" stroke-miterlimit="10" stroke-width="3.3"/>
      <path id="Path_5" data-name="Path 5" d="M0,24.529.605.8,9.428,4.3l9.32,18.2L39.62,16.6,48.848,0" transform="translate(67.794 21.765)" fill="none" stroke="#fff" stroke-linejoin="round" stroke-miterlimit="10" stroke-width="3.3"/>
    </g>
    <g id="shadow-4" data-name="shadow" transform="translate(71.605 57.276)">
      <path id="shadow-5" data-name="shadow" d="M68.208,79.912,0,45.309l10.118-3.82,6.641,3.82L47.9,0h7.227Z" fill="url(#linear-gradient-2)"/>
      <path id="shadow-6" data-name="shadow" d="M68.208,79.912,0,45.309l10.118-3.82,6.641,3.82L47.9,0h7.227Z" fill="rgba(216,216,216,0.03)"/>
    </g>
    <g id="lines" transform="matrix(0.875, -0.485, 0.485, 0.875, 0.443, 22.148)">
      <path id="Line" d="M10.872,13.2,4.735,1.361A2.5,2.5,0,0,0,1.346.29,2.551,2.551,0,0,0,.287,3.716L6.424,15.558a2.5,2.5,0,0,0,3.389,1.07A2.551,2.551,0,0,0,10.872,13.2Z" transform="translate(14.118 3.913)" fill="url(#linear-gradient-3)"/>
      <path id="Line_Copy" data-name="Line Copy" d="M10.872,13.2,4.735,1.361A2.5,2.5,0,0,0,1.346.29,2.551,2.551,0,0,0,.287,3.716L6.424,15.558a2.5,2.5,0,0,0,3.389,1.07A2.551,2.551,0,0,0,10.872,13.2Z" transform="matrix(0.914, -0.407, 0.407, 0.914, 0, 14.81)" fill="url(#linear-gradient-3)"/>
      <path id="Line_Copy_2" data-name="Line Copy 2" d="M10.872,13.2,4.735,1.361A2.5,2.5,0,0,0,1.346.29,2.551,2.551,0,0,0,.287,3.716L6.424,15.558a2.5,2.5,0,0,0,3.389,1.07A2.551,2.551,0,0,0,10.872,13.2Z" transform="translate(33.598 0) rotate(30)" fill="url(#linear-gradient-3)"/>
    </g>
    <g id="lines-2" data-name="lines" transform="translate(134.958 5.246) rotate(41)">
      <path id="Line-2" data-name="Line" d="M.287,13.2,6.424,1.361A2.5,2.5,0,0,1,9.813.29a2.551,2.551,0,0,1,1.059,3.425L4.735,15.558a2.5,2.5,0,0,1-3.389,1.07A2.551,2.551,0,0,1,.287,13.2Z" transform="translate(17.986 3.913)" fill="url(#linear-gradient-3)"/>
      <path id="Line_Copy-2" data-name="Line Copy" d="M.287,13.2,6.424,1.361A2.5,2.5,0,0,1,9.813.29a2.551,2.551,0,0,1,1.059,3.425L4.735,15.558a2.5,2.5,0,0,1-3.389,1.07A2.551,2.551,0,0,1,.287,13.2Z" transform="matrix(0.914, 0.407, -0.407, 0.914, 33.068, 10.271)" fill="url(#linear-gradient-3)"/>
      <path id="Line_Copy_2-2" data-name="Line Copy 2" d="M.287,13.2,6.424,1.361A2.5,2.5,0,0,1,9.813.29a2.551,2.551,0,0,1,1.059,3.425L4.735,15.558a2.5,2.5,0,0,1-3.389,1.07A2.551,2.551,0,0,1,.287,13.2Z" transform="translate(0 5.58) rotate(-30)" fill="url(#linear-gradient-3)"/>
    </g>
    <g id="Pin" transform="translate(38.051 31.253)">
      <g id="Group_5" data-name="Group 5" transform="translate(0 0)">
        <path id="Combined_Shape_Copy_2" data-name="Combined Shape Copy 2" d="M20.873,72.933h0A71.286,71.286,0,0,1,8.155,54.726,97.383,97.383,0,0,1,1.4,36.75,27.373,27.373,0,0,1,0,28.066C0,14.793,9.825,2.465,22.366,0c1.278.158,3.175.4,4.889.726C27.7.809,28.153.9,28.6,1V15.583c-.44-.044-.891-.067-1.341-.067a13.446,13.446,0,0,0,0,26.891c.447,0,.9-.022,1.341-.067V72.256c-.037,0-3.808.151-7.723.676Z" transform="translate(6.255 3.485) rotate(-7)" fill="url(#linear-gradient-9)"/>
        <path id="Combined_Shape-2" data-name="Combined Shape" d="M27.256,72.993h0A137.419,137.419,0,0,1,16.836,61.759,114.038,114.038,0,0,1,8.385,50.3,62.77,62.77,0,0,1,1.838,37.23,27.382,27.382,0,0,1,16.646,2.149,27.009,27.009,0,0,1,27.256,0c.446,0,.9.011,1.341.032V14.857c-.44-.044-.891-.067-1.341-.067a13.446,13.446,0,0,0,0,26.892c.447,0,.9-.022,1.341-.067v30.1c-.83.806-1.32,1.254-1.34,1.272Z" transform="translate(0 4.381) rotate(-7)" fill="url(#linear-gradient-10)"/>
      </g>
      <g id="Group_2" data-name="Group 2" transform="translate(45.6 0.734)">
        <path id="Combined_Shape_Copy_3" data-name="Combined Shape Copy 3" d="M6.026,71.5h0c4.525-6.1,9.236-12.61,13.036-18.823a73.3,73.3,0,0,0,7.871-16.566,27.42,27.42,0,0,0,1.608-9.291,26.529,26.529,0,0,0-1.761-9.532,27.2,27.2,0,0,0-4.827-8.047A28,28,0,0,0,5.847,0,22.139,22.139,0,0,0,1.853.576l-.021,0C1.166.719.537.85,0,.921V14.328c.439-.044.889-.067,1.338-.067a13.457,13.457,0,0,1,0,26.913c-.446,0-.9-.022-1.338-.067V69.723c.136.117.211.18.216.185s3.645.986,5.809,1.592Z" transform="matrix(0.996, 0.087, -0.087, 0.996, 6.232, 0)" fill="url(#linear-gradient-11)"/>
        <path id="Combined_Shape_Copy" data-name="Combined Shape Copy" d="M1.338,73.051h0a136.081,136.081,0,0,0,10.4-11.239,114.265,114.265,0,0,0,8.435-11.47,62.965,62.965,0,0,0,6.535-13.076,27.4,27.4,0,0,0,1.837-9.9A27.324,27.324,0,0,0,26.4,16.711a27.28,27.28,0,0,0-5.83-8.7A27.108,27.108,0,0,0,11.927,2.15,26.9,26.9,0,0,0,1.338,0C.893,0,.443.011,0,.032V14.869c.439-.044.889-.067,1.338-.067a13.456,13.456,0,0,1,0,26.912c-.446,0-.9-.022-1.338-.067V71.777c.849.826,1.332,1.269,1.337,1.273Z" transform="matrix(0.996, 0.087, -0.087, 0.996, 12.077, 0.359)" fill="url(#linear-gradient-12)"/>
      </g>
    </g>
  </g>
</svg>
