<svg id="free-delivery_1_" data-name="free-delivery (1)" xmlns="http://www.w3.org/2000/svg" width="27.261" height="17.976" viewBox="0 0 27.261 17.976">
  <g id="free-delivery_1_2" data-name="free-delivery (1)" transform="translate(0 -85.915)">
    <g id="Group_2795" data-name="Group 2795" transform="translate(6.676 95.515)">
      <path id="Path_1967" data-name="Path 1967" d="M123.543,264.665v4.458h15.668a.811.811,0,0,0,.811-.811v-3.647l-8.239-1.081Z" transform="translate(-123.543 -263.584)" fill="#8b9ba9"/>
      <path id="Path_1968" data-name="Path 1968" d="M138.4,279.585v3.053H123.543v1.621h15.668a.811.811,0,0,0,.811-.811V279.8Z" transform="translate(-123.543 -278.72)" fill="#6c7a88"/>
    </g>
    <g id="Group_2798" data-name="Group 2798" transform="translate(0 85.915)">
      <g id="Group_2796" data-name="Group 2796" transform="translate(0 0)">
        <path id="Path_1969" data-name="Path 1969" d="M9.311,85.915H24.087a.811.811,0,0,1,.811.811v2.526H30.3a1.621,1.621,0,0,1,1.582,1.265l.613,2.728a9.732,9.732,0,0,1,.237,2.135v5.674H24.9V96.6H9.311a.811.811,0,0,1-.811-.811v-9.06A.811.811,0,0,1,9.311,85.915Z" transform="translate(-5.933 -85.915)" fill="#64b575"/>
        <path id="Path_1970" data-name="Path 1970" d="M8.905,93.115h2.162V91.661H9.986a.405.405,0,0,1,0-.811h1.081V89.4H9.446a.405.405,0,0,1,0-.811h1.621V87.131H8.905a.405.405,0,1,1,0-.811h2.271a.81.81,0,0,1,.7-.405h.811v9.06H27.464V89.251h1.621V96.6H30.3a4.441,4.441,0,0,1,3.055,1.216H35.3v3.242H27.464V96.6H11.877a.81.81,0,0,1-.7-.405H9.446a.405.405,0,0,1,0-.811h1.621V93.926H8.905a.405.405,0,0,1,0-.811Z" transform="translate(-8.5 -85.915)" fill="#457a50"/>
      </g>
      <path id="Path_1971" data-name="Path 1971" d="M2.966,337.706H0v-1.621H2.966a.405.405,0,0,1,.405.405v.81A.405.405,0,0,1,2.966,337.706Z" transform="translate(23.889 -322.567)" fill="#8b9ba9"/>
      <g id="Group_2797" data-name="Group 2797" transform="translate(20.585 4.957)">
        <path id="Path_1972" data-name="Path 1972" d="M37.46,177.659h3.881l.771,3.427H37.46Z" transform="translate(-37.46 -177.659)" fill="#9dc6fb"/>
        <path id="Path_1973" data-name="Path 1973" d="M38.984,179.465h2.763l.365,1.621H37.46v-3.427h1.524Z" transform="translate(-37.46 -177.659)" fill="#80b4fb"/>
      </g>
    </g>
    <g id="Group_2799" data-name="Group 2799" transform="translate(5.188 98.217)">
      <ellipse id="Ellipse_19" data-name="Ellipse 19" cx="2.837" cy="2.837" rx="2.837" ry="2.837" transform="translate(0 0)" fill="#4d5967"/>
      <path id="Path_1974" data-name="Path 1974" d="M306.861,314.693a1.621,1.621,0,0,1-.28,1.917l1.719,1.719a1.621,1.621,0,0,1,1.917-.28,2.837,2.837,0,1,1-3.357-3.357Z" transform="translate(-304.604 -314.633)" fill="#35404a"/>
      <ellipse id="Ellipse_20" data-name="Ellipse 20" cx="1.216" cy="1.216" rx="1.216" ry="1.216" transform="translate(1.621 1.621)" fill="#fff9eb"/>
    </g>
    <g id="Group_2800" data-name="Group 2800" transform="translate(18.964 98.217)">
      <ellipse id="Ellipse_21" data-name="Ellipse 21" cx="2.837" cy="2.837" rx="2.837" ry="2.837" transform="translate(0 0)" fill="#4d5967"/>
      <path id="Path_1975" data-name="Path 1975" d="M51.909,314.693a1.621,1.621,0,0,1-.28,1.917l1.719,1.719a1.621,1.621,0,0,1,1.917-.28,2.837,2.837,0,1,1-3.357-3.357Z" transform="translate(-49.652 -314.633)" fill="#35404a"/>
      <ellipse id="Ellipse_22" data-name="Ellipse 22" cx="1.216" cy="1.216" rx="1.216" ry="1.216" transform="translate(1.621 1.621)" fill="#fff9eb"/>
    </g>
    <g id="Group_2801" data-name="Group 2801" transform="translate(6.04 88.248)">
      <path id="Path_1976" data-name="Path 1976" d="M215.25,155.565v.405h.513a.405.405,0,0,1,0,.81h-.513v.81a.405.405,0,1,1-.81,0V155.16a.405.405,0,0,1,.405-.405h1.243a.405.405,0,0,1,0,.81h-.837Z" transform="translate(-214.44 -154.755)" fill="#fff9eb"/>
      <path id="Path_1977" data-name="Path 1977" d="M260.88,157.305a.405.405,0,0,1-.576.571l-.685-.691H259.4v.405a.405.405,0,1,1-.81,0v-2.431a.405.405,0,0,1,.405-.405h.79a1.216,1.216,0,0,1,.728,2.185Zm-.693-1.336a.4.4,0,0,0-.4-.405H259.4v.81h.385A.4.4,0,0,0,260.187,155.97Z" transform="translate(-256.207 -154.754)" fill="#fff9eb"/>
      <path id="Path_1978" data-name="Path 1978" d="M313.628,157.59a.405.405,0,0,1-.405.405H311.98a.405.405,0,0,1-.405-.405v-2.431a.405.405,0,0,1,.405-.405h1.243a.405.405,0,0,1,0,.81h-.837v.405h.513a.405.405,0,0,1,0,.81h-.513v.405h.837A.4.4,0,0,1,313.628,157.59Z" transform="translate(-306.326 -154.753)" fill="#fff9eb"/>
      <path id="Path_1979" data-name="Path 1979" d="M360.162,157.59a.405.405,0,0,1-.405.405h-1.243a.405.405,0,0,1-.405-.405v-2.431a.405.405,0,0,1,.405-.405h1.243a.405.405,0,0,1,0,.81h-.837v.405h.513a.405.405,0,0,1,0,.81h-.513v.405h.837A.4.4,0,0,1,360.162,157.59Z" transform="translate(-350.346 -154.753)" fill="#fff9eb"/>
    </g>
  </g>
</svg>
