<svg xmlns="http://www.w3.org/2000/svg" width="11.789" height="13.756" viewBox="0 0 11.789 13.756">
  <g id="language" transform="translate(-82.219 -12.589)">
    <path id="Path_89" data-name="Path 89" d="M85.02,18.274q-.008.023-.1,0c-.059-.018-.139-.048-.241-.088l-.153-.069a4.551,4.551,0,0,1-.668-.376c-.036-.025-.14-.107-.314-.241s-.271-.209-.292-.219a12.769,12.769,0,0,1-1.029,1.389,5.676,5.676,0,0,1-.806.843.593.593,0,0,1-.149.031.307.307,0,0,1-.142,0c.031-.02.24-.255.63-.706.108-.122.326-.417.657-.883s.531-.768.6-.905q.131-.229.392-.756c.174-.351.265-.549.276-.594a6.069,6.069,0,0,0-.843.254c-.041.01-.111.029-.211.058l-.265.073a1.33,1.33,0,0,0-.131.038.133.133,0,0,0-.015.08.162.162,0,0,1-.008.073c-.025.051-.105.09-.237.115a.608.608,0,0,1-.361,0,.319.319,0,0,1-.215-.161.393.393,0,0,1-.038-.177,1.335,1.335,0,0,1,.188-.038,2.3,2.3,0,0,0,.226-.046c.3-.081.566-.164.806-.246q.766-.267.783-.268a1.731,1.731,0,0,0,.33-.149c.168-.088.282-.145.338-.166s.1-.035.166-.06l.111-.042a.1.1,0,0,1,.046,0,.846.846,0,0,1-.008.254,1.628,1.628,0,0,1-.1.208c-.065.128-.132.265-.2.411s-.115.232-.131.257a11.3,11.3,0,0,1-.591,1l.491.215c.062.031.253.112.571.246l.518.215c.02.006.048.07.08.2a.549.549,0,0,1,.034.234h0Zm-1.573-3.729a.314.314,0,0,1-.031.215.7.7,0,0,1-.385.292,1.225,1.225,0,0,1-.46.093.634.634,0,0,1-.376-.2.582.582,0,0,1-.139-.314l.008-.022a.32.32,0,0,0,.149.038.7.7,0,0,0,.2,0c.052-.01.2-.052.445-.122a2.1,2.1,0,0,1,.422-.107.152.152,0,0,1,.161.131Zm5.357.989.483,1.742-1.067-.323Zm-8.5,6.14,5.326-1.78v-7.92L80.3,13.763v7.911Zm9.524-2.434.783.237-1.389-5.043L88.45,14.2l-1.658,4.115.783.237.345-.844,1.618.5Zm-3.861-7.382,4.4,1.412V10.355Zm2.387,10.153,1.213.1-.414,1.228-.307-.505a5.727,5.727,0,0,1-2.118.829,3.647,3.647,0,0,1-.7.093h-.644a5.191,5.191,0,0,1-1.531-.3,5.075,5.075,0,0,1-1.409-.653.161.161,0,0,1-.06-.122.147.147,0,0,1,.038-.1.128.128,0,0,1,.1-.042.467.467,0,0,1,.139.058l.234.126c.084.046.136.074.157.084a6.761,6.761,0,0,0,1.224.472,4.483,4.483,0,0,0,1.208.188,6.532,6.532,0,0,0,1.281-.111,6.355,6.355,0,0,0,1.206-.387c.077-.036.154-.076.234-.119s.167-.091.261-.146.168-.1.219-.126Zm3.439-8.281v8.281l-5.941-1.888q-.107.046-2.879.978t-2.822.932a.14.14,0,0,1-.139-.1A.05.05,0,0,0,80,21.911V13.638a.332.332,0,0,1,.031-.077.342.342,0,0,1,.153-.084c.542-.178.924-.307,1.144-.385V10.145l4.282,1.52q.015,0,1.232-.422t2.425-.834c.806-.271,1.218-.408,1.239-.408.1,0,.153.053.153.161V13.37Z" transform="translate(2.219 2.589)" fill="#3c4959"/>
  </g>
</svg>
