<svg xmlns="http://www.w3.org/2000/svg" width="11.887" height="17.294" viewBox="0 0 11.887 17.294">
  <path id="question-solid" d="M31.557,0a6.545,6.545,0,0,0-5.813,3.075.812.812,0,0,0,.175,1.11l1.457,1.1A.811.811,0,0,0,28.5,5.15c.846-1.06,1.474-1.67,2.8-1.67,1.039,0,2.324.669,2.324,1.676,0,.762-.629,1.153-1.655,1.728-1.2.671-2.78,1.506-2.78,3.594v.331a.811.811,0,0,0,.811.811h2.448a.811.811,0,0,0,.811-.811v-.2c0-1.448,4.231-1.508,4.231-5.426C37.484,2.238,34.424,0,31.557,0Zm-.338,12.615a2.34,2.34,0,1,0,2.34,2.34A2.343,2.343,0,0,0,31.218,12.615Z" transform="translate(-25.597)" fill="#3c4959"/>
</svg>
