<svg xmlns="http://www.w3.org/2000/svg" width="207.178" height="162.776" viewBox="0 0 207.178 162.776">
  <g id="Illustration_2" transform="translate(-1130.53 -1351)">
    <path id="Path_27" data-name="Path 27" d="M1305.75,1367.228,1255.183,1351l-23.519,7.728-39.983,27.82s-34.691-6.955-43.511,0-17.639,53.321-17.639,53.321l32.618,26.012,70.279-5.92,48.572,8.262,41.857,5.119,13.852-78.9Z" fill="#ebf4ee"/>
    <g id="Illustration_Fruits_Banana" data-name="Illustration Fruits Banana" transform="translate(1233.124 1401.426)">
      <g id="Grupo_982" data-name="Grupo 982" transform="translate(0 4.075)">
        <path id="Trazado_404" data-name="Trazado 404" d="M1549.072,1551.628a3,3,0,0,0-1.449-3.034c-.367-.149-1,.086-1.431.121a5.494,5.494,0,0,0-3.086,1.324c-3.029,2.5-7.476,7.753-11.423,9.781s-10.1,5.528-14.243,4.555a76.908,76.908,0,0,1-8.438-2.617c-.042-.016-.078-.032-.118-.051-.388-.191-2.839-1.346-4.436-.836a3.344,3.344,0,0,0-1.542.768,1.7,1.7,0,0,0-.495,1.481,10.639,10.639,0,0,0,4.246,5.851c3.89,2.585,9.378,6.574,12.254,7.186s8.643.682,12.242-1.235a39.137,39.137,0,0,0,11.534-9.432c3.28-4.113,3.353-5.943,5.073-9.281A12.085,12.085,0,0,0,1549.072,1551.628Z" transform="translate(-1502.392 -1548.545)" fill="#fdce51"/>
        <g id="Grupo_981" data-name="Grupo 981" transform="translate(0.424 0.38)">
          <path id="Trazado_405" data-name="Trazado 405" d="M1548.585,1550.243a38.158,38.158,0,0,1-5.278,9.841,26.379,26.379,0,0,1-8.847,6.9,29.786,29.786,0,0,1-9.292,3.336,20.388,20.388,0,0,1-10.107-1.271,61.374,61.374,0,0,1-10.851-5.8,1.859,1.859,0,0,0-.282.4c6.051,3.727,12.633,8.379,20.048,7.765a27.474,27.474,0,0,0,9.848-3.041,30.643,30.643,0,0,0,9.209-6.5c3.051-3.348,4.452-7.726,6.094-11.889a.569.569,0,0,0-.359-.056Z" transform="translate(-1503.929 -1549.921)"/>
        </g>
      </g>
      <g id="Grupo_984" data-name="Grupo 984" transform="translate(10.015 4.17)">
        <path id="Trazado_406" data-name="Trazado 406" d="M1577.219,1551.035c-.81-1.281-2.342-2.3-3.706-1.941-.477.125-.937.835-1.335,1.186a6.841,6.841,0,0,0-2.087,3.621c-1.153,4.752-1.666,13.3-4.085,18.266s-5.941,13.044-10.792,15.164a95.765,95.765,0,0,1-10.358,3.688c-.051.015-.1.027-.156.037-.53.1-3.833.777-5.043,2.476a4.166,4.166,0,0,0-.963,1.918,2.119,2.119,0,0,0,.611,1.844,13.249,13.249,0,0,0,8.6,2.662c5.8-.327,14.248-.447,17.569-1.983s9.12-5.768,11.275-10.363a48.738,48.738,0,0,0,4.455-18c.2-6.544-1.094-8.422-1.87-13.031A15.05,15.05,0,0,0,1577.219,1551.035Z" transform="translate(-1538.692 -1548.986)" fill="#fdce51"/>
        <g id="Grupo_983" data-name="Grupo 983" transform="translate(0.042)">
          <path id="Trazado_407" data-name="Trazado 407" d="M1573.9,1552.542a43.652,43.652,0,0,1-1.072,22.675c-2.574,7.481-7.927,14.248-15.3,17.574-4.041,1.823-14.349,2.545-18.682,3.348l.064.379c3.642.363,14.335-1.016,18.139-2.524a26.249,26.249,0,0,0,9.868-6.9c5.346-5.931,8-14.261,8.746-22.141.41-4.312-.219-8.282-.484-12.6a12.788,12.788,0,0,0-.92-3.463l-.633.107Z" transform="translate(-1538.845 -1548.89)"/>
        </g>
      </g>
      <path id="Trazado_408" data-name="Trazado 408" d="M1660.179,1538.055l-1.8-2.957,2.059-1.325,3.12,1.1-2.743,3.07Z" transform="translate(-1615.342 -1533.774)"/>
    </g>
    <g id="Illustration_Fruits_Carrot" data-name="Illustration Fruits Carrot" transform="translate(1194.618 1384.447)">
      <path id="Trazado_434" data-name="Trazado 434" d="M1378.886,1508.481c-6.813.938-12.3,4.122-15.245,7.745-2.385,5.634,2.343,12.095,9.655,20.513,6.1,8.466,13.508,16.86,20.735,25.9,2.109,2.634,4.2,5.327,6.244,8.088.606.821,3.206-1.137,3.49-2.117-1.485-8.318-2.02-9.314-6.172-21.033-1.931-7.877-5.41-16.064-8.551-23.233C1386.418,1515.627,1382.173,1510.574,1378.886,1508.481Z" transform="translate(-1362.964 -1498.48)" fill="#94b7bd"/>
      <path id="Trazado_435" data-name="Trazado 435" d="M1368.709,1485.635l-4.5-3.454a1.368,1.368,0,0,1-.511-.826l-.487-2.514s-.769-3.969-.133-5.062c.142-.244.7-1.617.972-1.545.713.188,1.188,2.9,1.611,3.5.987,1.411,3.609,3.844,4.2,5.461a10.367,10.367,0,0,1,.066,2.531l.968.945Z" transform="translate(-1362.823 -1472.232)" fill="#fd6769"/>
    </g>
    <g id="Illustration_Fruits_Tomato" data-name="Illustration Fruits Tomato" transform="translate(1227.585 1400.043)">
      <path id="Trazado_427" data-name="Trazado 427" d="M1482.319,1588.442c.081-8.058,2.742-12.851,15.259-16.6a12.806,12.806,0,0,1,8.3.415c12.328,5.56,20.611,11.154,19.41,20.346a24.954,24.954,0,0,1-8.2,14.524c-4.286,3.4-9.174,3.92-15.36,3.321a28.677,28.677,0,0,1-4.152-.415C1487.69,1607.433,1482.219,1598.411,1482.319,1588.442Z" transform="translate(-1482.318 -1559.596)" fill="#fed9db"/>
      <path id="Trazado_428" data-name="Trazado 428" d="M1535.116,1542.047s1.66,0,6.227-7.057c-2.491,2.075-10.585,3.113-10.585,3.113a53.628,53.628,0,0,1,1.45-9.34c-1.9,0-4.152,1.66-5.249,5.443l-.563,2.858s-11.624-3.321-13.7-.415a23.412,23.412,0,0,1,8.3,2.906c-9.106,2.117-10.157,5.111-11.207,5.812,5.4-2.491,3.321-2.491,13.906-1.868,1.349,3.373.415,7.471-1.073,10.632a11.7,11.7,0,0,0,.244,3.067c3.944-2.7,7.887-12.039,7.887-12.039s3.736,1.246,10.378,9.133C1542.381,1549.727,1535.116,1542.047,1535.116,1542.047Z" transform="translate(-1502.213 -1528.763)" fill="#94b7bd"/>
    </g>
    <g id="Illustration_Fruits_Lemon" data-name="Illustration Fruits Lemon" transform="translate(1184.586 1402.069)">
      <path id="Trazado_436" data-name="Trazado 436" d="M1342.935,1584.78c-1.648,8.865-11.057,23.393-1.861,35.415,4.447,5.813,20.185,7.463,20.185,7.463s5.481-.62,8.7,1.314a8.445,8.445,0,0,0,1.666-.816l-.868-5.566s4.269-14.9-1.806-23.081c-2.87-5.736-18.408-12.51-20.215-13.283a.479.479,0,0,1-.248-.24,5.141,5.141,0,0,0-.988-1.583A5.674,5.674,0,0,0,1342.935,1584.78Z" transform="translate(-1334.163 -1570.845)" fill="#fdce51"/>
      <path id="Trazado_437" data-name="Trazado 437" d="M1326.461,1536.777c.816,1.666,1.769,6.984,1.769,6.984l4.553,1.281s3.782,4.345,3.684,6.253c.36.206.581-.078,1.659.014a8.109,8.109,0,0,1,.287-4.9c.6-1.749,6.089-4.017,6.089-4.017l1.876-6.291s-5.131.341-6.318,1.443c-1.376,1.278-1.941,4.05-3.869,6.441a11.491,11.491,0,0,0-3.111-5.5C1331.865,1537.291,1328.12,1536.79,1326.461,1536.777Z" transform="translate(-1326.461 -1536.105)" fill="#fd6769"/>
    </g>
    <path id="Path_28" data-name="Path 28" d="M1367.918,1481.972l-3.849.2-15.69,21.47-15.69,20.644-6.873,5.368h-92.78l-26.972-35.827-11.172-14.839-3.618.54,20.437,25.766,18.993,29.5v71.657h95.378v-68.915l15.281-20.3,14.951-19.859Z" transform="translate(-43.986 -92.68)" fill="#6ab97b"/>
    <rect id="Rectangle_1" data-name="Rectangle 1" width="61.108" height="26.425" transform="translate(1205.057 1460.1)" fill="#ffe7cf"/>
  </g>
</svg>
