<svg xmlns="http://www.w3.org/2000/svg" width="15.648" height="15.725" viewBox="0 0 15.648 15.725">
  <path id="whatsapp" d="M13.368.7A7.734,7.734,0,0,0,7.855-1.582,7.8,7.8,0,0,0,1.107,10.1L0,14.143l4.131-1.084a7.789,7.789,0,0,0,3.722.95h0A7.794,7.794,0,0,0,13.367.7h0ZM7.857,12.694a6.467,6.467,0,0,1-3.3-.9l-.237-.142-2.451.642L2.525,9.9l-.153-.245A6.479,6.479,0,0,1,12.44,1.63,6.483,6.483,0,0,1,7.857,12.693h0Zm3.551-4.852c-.193-.1-1.152-.568-1.33-.633s-.308-.1-.44.1-.5.633-.617.764-.227.148-.42.049a5.356,5.356,0,0,1-1.566-.967A5.941,5.941,0,0,1,5.95,5.805c-.114-.193-.013-.3.086-.4s.194-.227.292-.341a1.263,1.263,0,0,0,.194-.325A.358.358,0,0,0,6.507,4.4c-.049-.1-.44-1.057-.6-1.447s-.319-.328-.439-.335-.243-.006-.372-.006a.718.718,0,0,0-.519.243A2.184,2.184,0,0,0,3.9,4.481a3.794,3.794,0,0,0,.8,2.015,8.693,8.693,0,0,0,3.326,2.94c.464.2.826.319,1.109.412a2.688,2.688,0,0,0,1.226.077A2,2,0,0,0,11.667,9a1.62,1.62,0,0,0,.114-.925c-.046-.087-.175-.135-.372-.234h0Z" transform="translate(-0.001 1.582)" fill="#25d366" fill-rule="evenodd"/>
</svg>
