<svg xmlns="http://www.w3.org/2000/svg" width="24.351" height="22.704" viewBox="0 0 24.351 22.704">
  <g id="Bank_icon" transform="translate(-9.998 -43.143)">
    <g id="Group_2646" data-name="Group 2646" transform="translate(9.998 43.143)">
      <rect id="Rectangle_705" data-name="Rectangle 705" width="6" height="5" transform="translate(9.421 2)" fill="#f88518"/>
      <path id="Path_110" data-name="Path 110" d="M21.889-467.8c-.121.034-2.794,1.4-5.946,3.036-6.028,3.133-5.946,3.084-5.946,3.4a3.556,3.556,0,0,0,.285.687c.3.614.459.8.769.885.121.034,3.756.048,11.166.048,11.954,0,11.166.019,11.456-.256a4.09,4.09,0,0,0,.406-.682c.319-.638.343-.817.126-1.025-.155-.15-11.563-6.052-11.8-6.11A.674.674,0,0,0,21.889-467.8Zm.686,2.253c.121.247.155.276.459.363a1.053,1.053,0,0,1,.72.682c.048.271-.015.333-.372.348-.421.019-.483,0-.662-.256-.135-.193-.174-.217-.343-.217-.261,0-.421.082-.488.242-.111.266.058.411.706.609,1.03.309,1.276.536,1.276,1.17a1.134,1.134,0,0,1-.851,1.1c-.295.092-.324.116-.445.363-.053.111-.121.174-.193.184a.283.283,0,0,1-.3-.237c0-.106-.16-.217-.387-.261a1.168,1.168,0,0,1-.841-.662c-.1-.237-.1-.309.019-.425.073-.073.16-.1.367-.1.329,0,.42.043.556.285a.529.529,0,0,0,.556.295c.406,0,.643-.4.392-.648a2.751,2.751,0,0,0-.744-.314c-.686-.222-.981-.411-1.107-.715a1.082,1.082,0,0,1,.682-1.387c.392-.135.474-.189.512-.334C22.175-465.791,22.435-465.834,22.576-465.544Z" transform="translate(-9.998 467.858)" fill="#3c4959"/>
      <path id="Path_111" data-name="Path 111" d="M90.282-100.421a.372.372,0,0,0-.217.377.422.422,0,0,0,.387.416c.251.048.338.106.411.276a35.89,35.89,0,0,1-.193,4.505c-.14,2.393-.261,4.355-.261,4.355s-.2.014-.43.029c-.595.029-.836.189-.933.609a.8.8,0,0,0,.536.88c.232.063,19.1.068,19.331,0a.872.872,0,0,0,.5-.435.93.93,0,0,0-.043-.677c-.15-.261-.368-.353-.846-.377l-.425-.019-.019-.155c-.014-.082-.058-.8-.1-1.6s-.15-2.688-.242-4.205a16.6,16.6,0,0,1-.1-2.91c.073-.169.16-.227.411-.276a.427.427,0,0,0,.387-.4c0-.454,0-.454-2.2-.454h-1.871l-.145.145c-.126.13-.145.174-.121.329a.442.442,0,0,0,.425.377.507.507,0,0,1,.43.5c0,.1-.111,2.059-.242,4.355s-.242,4.2-.242,4.239-.309.063-1.706.063h-1.7l-.251-4.38c-.232-3.949-.246-4.389-.184-4.52.082-.16.169-.213.421-.256a.412.412,0,0,0,.227-.725l-.15-.126h-3.77l-.14.14c-.266.271-.126.638.276.711a.486.486,0,0,1,.43.377c.014.082-.082,2.03-.217,4.326s-.242,4.235-.242,4.312v.14H94.029v-.145c0-.082-.111-2.035-.242-4.341s-.232-4.249-.213-4.321a.516.516,0,0,1,.454-.353.4.4,0,0,0,.246-.706l-.14-.14h-1.88A14.953,14.953,0,0,0,90.282-100.421Z" transform="translate(-87.067 109.608)" fill="#3c4959"/>
      <path id="Path_112" data-name="Path 112" d="M31.751,384.189a.742.742,0,0,0-.256.155.762.762,0,0,0,.1,1.218l.135.1,11.05.014c7.173,0,11.108,0,11.224-.039a.93.93,0,0,0,.343-.217c.16-.164.169-.193.169-.508s-.01-.343-.169-.508a.912.912,0,0,0-.338-.217C53.794,384.13,31.954,384.13,31.751,384.189Z" transform="translate(-30.707 -362.975)" fill="#3c4959"/>
    </g>
  </g>
</svg>
