<svg id="money-bill-solid" xmlns="http://www.w3.org/2000/svg" width="20.957" height="13.001" viewBox="0 0 20.957 13.001">
  <path id="money-bill-solid-2" data-name="money-bill-solid" d="M19.909,64H1.048A1.066,1.066,0,0,0,0,65.083V75.918A1.066,1.066,0,0,0,1.048,77H19.909a1.066,1.066,0,0,0,1.048-1.083V65.083A1.066,1.066,0,0,0,19.909,64ZM1.572,75.376V73.209a2.132,2.132,0,0,1,2.1,2.167Zm0-7.584V65.625h2.1A2.132,2.132,0,0,1,1.572,67.792Zm8.907,5.959c-1.447,0-2.62-1.455-2.62-3.25s1.173-3.25,2.62-3.25,2.62,1.455,2.62,3.25S11.925,73.751,10.479,73.751Zm8.907,1.625h-2.1a2.132,2.132,0,0,1,2.1-2.167Zm0-7.584a2.132,2.132,0,0,1-2.1-2.167h2.1Z" transform="translate(0 -64)" fill="#f88518"/>
</svg>
