<svg xmlns="http://www.w3.org/2000/svg" xmlns:xlink="http://www.w3.org/1999/xlink" width="165.244" height="165.244" viewBox="0 0 165.244 165.244">
  <defs>
    <filter id="Oval" x="-39.85" y="-3.85" width="244.944" height="244.944" filterUnits="userSpaceOnUse">
      <feOffset dy="36" input="SourceAlpha"/>
      <feGaussianBlur stdDeviation="12" result="blur"/>
      <feFlood flood-color="#4957b8" flood-opacity="0.137"/>
      <feComposite operator="in" in2="blur"/>
      <feComposite in="SourceGraphic"/>
    </filter>
    <clipPath id="clip-path">
      <g transform="matrix(1, 0, 0, 1, 0, 0)" filter="url(#Oval)">
        <circle id="Oval-2" data-name="Oval" cx="82.622" cy="82.622" r="82.622" transform="translate(0 0)" fill="#fbe5f5" stroke="#fff" stroke-miterlimit="10" stroke-width="7.7"/>
      </g>
    </clipPath>
  </defs>
  <g id="Market" transform="translate(0 0)" clip-path="url(#clip-path)">
    <g id="Illustration_3" data-name="Illustration 3" transform="translate(-3173.518 -273.183)">
      <g id="Illustration_Fruits_Eggplant" data-name="Illustration Fruits Eggplant" transform="translate(3219.69 293.458)">
        <path id="Trazado_432" data-name="Trazado 432" d="M2309.626,3615c-3.542,35.023-7.477,31.875-6.1,40.729.82,5.27,8.853,13.73,18.5,10.624,11.609-3.739,12.7-10.888,13.576-16.331,1.143-7.125-10.231-25.973-17.315-35.023C2314.692,3610.416,2310,3611.337,2309.626,3615Z" transform="translate(-2303.245 -3606.545)" fill="#94b7bd"/>
        <ellipse id="Elipse_371" data-name="Elipse 371" cx="0.59" cy="0.984" rx="0.59" ry="0.984" transform="translate(6.97 29.905)" fill="#fff"/>
        <ellipse id="Elipse_372" data-name="Elipse 372" cx="0.59" cy="0.984" rx="0.59" ry="0.984" transform="translate(5.003 38.169)" fill="#fff"/>
        <ellipse id="Elipse_373" data-name="Elipse 373" cx="0.59" cy="0.984" rx="0.59" ry="0.984" transform="translate(8.545 48.008)" fill="#fff"/>
        <ellipse id="Elipse_374" data-name="Elipse 374" cx="0.59" cy="0.984" rx="0.59" ry="0.984" transform="translate(4.216 46.04)" fill="#fff"/>
        <ellipse id="Elipse_375" data-name="Elipse 375" cx="0.59" cy="0.984" rx="0.59" ry="0.984" transform="translate(13.267 46.04)" fill="#fff"/>
        <ellipse id="Elipse_376" data-name="Elipse 376" cx="0.59" cy="0.984" rx="0.59" ry="0.984" transform="translate(11.299 53.123)" fill="#fff"/>
        <ellipse id="Elipse_377" data-name="Elipse 377" cx="0.59" cy="0.984" rx="0.59" ry="0.984" transform="translate(10.512 40.531)" fill="#fff"/>
        <path id="Trazado_433" data-name="Trazado 433" d="M2328.214,3548.95c.394.787,1.381,1.374,1.574,2.361a2.771,2.771,0,0,1,0,1.967c-1.05,1.957-.788,2.361-1.968,4.722-.384.766-1.526,1.269-2.361,1.968a3.071,3.071,0,0,0,2.361,1.181c.782,0,1.268-1.137,1.968-.787,1.059.529,1.376,1.5,2.219,2.324a.569.569,0,0,0,.961-.382,47.119,47.119,0,0,0-.442-5.868,4.451,4.451,0,0,1,1.7,2.16.172.172,0,0,0,.33-.017,10.105,10.105,0,0,0,.235-3.478,9.419,9.419,0,0,1,2.92,3.05.344.344,0,0,0,.581.011,5.72,5.72,0,0,1,3.554-2.8c-1.579-.308-3.1-1.845-4.581-2.479s-2.925-.4-3.734-1.79a.5.5,0,0,1-.084-.224.528.528,0,0,1,.113-.291l1.366-2.12c-.023-.3-.023-.3-.388-.664-.784.317-1.6-.027-2.39-.027a3.176,3.176,0,0,1-2.361.394Z" transform="translate(-2323.604 -3547.771)"/>
      </g>
      <g id="Illustration_Fruits_Watermelon" data-name="Illustration Fruits Watermelon" transform="translate(3212.854 297.219) rotate(59)">
        <path id="Trazado_402" data-name="Trazado 402" d="M2.428,12.41S0,11.369,0,13.1s2.428,6.59,2.428,6.59,4.856,5.9,8.324,7.284S22.2,31.14,24.28,31.14s8.324-.347,11.1-1.734,7.284-4.856,8.672-6.937,4.509-7.284,5.2-10.406a64.24,64.24,0,0,0,1.388-7.978V.616s-2.428-1.387-2.428,0S5.2,13.45,5.2,13.45Z" fill="#94b7bd"/>
        <path id="Trazado_403" data-name="Trazado 403" d="M0,11.692S16.11,5.5,21.852,4.061C27.556,2.634,45.785.246,45.785.246s.347-1.387,0,2.428a59.256,59.256,0,0,1-2.428,10.059S43.01,16.9,38.5,21.4s-6.243,5.55-10.059,5.9S17,27.648,12.835,24.873,3.817,20.017,2.082,17.589A14.092,14.092,0,0,1,0,11.692Z" transform="translate(2.428 0.718)" fill="#ff9ea3"/>
        <ellipse id="Elipse_358" data-name="Elipse 358" cx="0.694" cy="1.362" rx="0.694" ry="1.362" transform="translate(28.658 15.156) rotate(-19.324)"/>
        <ellipse id="Elipse_359" data-name="Elipse 359" cx="0.694" cy="1.362" rx="0.694" ry="1.362" transform="translate(17.906 14.462) rotate(-19.324)"/>
        <ellipse id="Elipse_360" data-name="Elipse 360" cx="0.694" cy="1.362" rx="0.694" ry="1.362" transform="translate(24.843 12.034) rotate(-19.324)"/>
        <ellipse id="Elipse_361" data-name="Elipse 361" cx="0.694" cy="1.362" rx="0.694" ry="1.362" transform="translate(23.109 16.196) rotate(-19.324)"/>
        <ellipse id="Elipse_362" data-name="Elipse 362" cx="0.694" cy="1.362" rx="0.694" ry="1.362" transform="translate(30.393 11.34) rotate(-19.324)"/>
      </g>
      <g id="Illustration_Fruits_Grapes" data-name="Illustration Fruits Grapes" transform="translate(3235.646 293.458)">
        <path id="Trazado_412" data-name="Trazado 412" d="M1577.223,6060.344c-.123-1.4.048-1.287.778-2.367.959-1.42,2.733-3.851,4.574-4.012,2.37-.207,2.309.126,4.378,1.258.719.394,1.924,3.224,2,4.094a6.047,6.047,0,0,1-1.613,4.08,5.13,5.13,0,0,1-3.739,2.3,4.772,4.772,0,0,1-3.018-.72A6.269,6.269,0,0,1,1577.223,6060.344Z" transform="translate(-1553.931 -6033.874)" fill="#6790c2"/>
        <path id="Trazado_413" data-name="Trazado 413" d="M1402.809,6098.056c-.123-1.4.048-1.287.778-2.367.959-1.42,2.733-3.851,4.574-4.011,2.369-.207,2.309.126,4.378,1.258.719.394,1.924,3.224,2,4.094a6.049,6.049,0,0,1-1.613,4.081,5.13,5.13,0,0,1-3.739,2.3,4.776,4.776,0,0,1-3.018-.721A6.265,6.265,0,0,1,1402.809,6098.056Z" transform="translate(-1391.619 -6068.969)" fill="#6790c2"/>
        <path id="Trazado_414" data-name="Trazado 414" d="M1461.864,6388.59c-.106-1.215.042-1.117.676-2.055.833-1.233,2.374-3.344,3.972-3.484,2.058-.18,2.005.11,3.8,1.093.624.342,1.671,2.8,1.737,3.555a5.255,5.255,0,0,1-1.4,3.544,4.455,4.455,0,0,1-3.247,1.995,4.147,4.147,0,0,1-2.621-.626A5.436,5.436,0,0,1,1461.864,6388.59Z" transform="translate(-1446.581 -6340.132)" fill="#fed9db"/>
        <path id="Trazado_415" data-name="Trazado 415" d="M1251.427,6129.021c1.076.9.875.944,1.123,2.224.326,1.682.79,4.656-.4,6.071-1.529,1.822-1.724,1.544-3.986,2.207-.786.23-3.639-.919-4.308-1.48a6.054,6.054,0,0,1-1.745-4.026,5.133,5.133,0,0,1,1.02-4.269,4.772,4.772,0,0,1,2.644-1.624A6.274,6.274,0,0,1,1251.427,6129.021Z" transform="translate(-1242.036 -6102.67)" fill="#6790c2"/>
        <path id="Trazado_416" data-name="Trazado 416" d="M1362.983,6262.48c.123,1.4-.048,1.287-.778,2.367-.959,1.42-2.733,3.851-4.574,4.012-2.37.207-2.309-.126-4.378-1.258-.719-.394-1.924-3.224-2-4.094a6.051,6.051,0,0,1,1.613-4.081,5.13,5.13,0,0,1,3.739-2.3,4.781,4.781,0,0,1,3.018.721A6.262,6.262,0,0,1,1362.983,6262.48Z" transform="translate(-1343.662 -6222.973)" fill="#6790c2"/>
        <path id="Trazado_417" data-name="Trazado 417" d="M1538.982,6228.012c1.076.9.875.944,1.123,2.223.326,1.682.79,4.657-.4,6.071-1.529,1.822-1.724,1.544-3.986,2.207-.786.23-3.639-.919-4.308-1.481a6.051,6.051,0,0,1-1.745-4.026,5.133,5.133,0,0,1,1.02-4.268,4.779,4.779,0,0,1,2.644-1.625A6.276,6.276,0,0,1,1538.982,6228.012Z" transform="translate(-1509.639 -6194.793)" fill="#6790c2"/>
        <g id="Grupo_988" data-name="Grupo 988" transform="translate(10.84)">
          <g id="Grupo_987" data-name="Grupo 987" transform="translate(4.563)">
            <path id="Trazado_418" data-name="Trazado 418" d="M1466,5786.563c-1.227-3.1-.757-7.97,0-11.121a31.948,31.948,0,0,1,3.991-8.986c-.066-1.154-.872-1.729-1.412-.825a39.661,39.661,0,0,0-4.09,10.157,31.359,31.359,0,0,0-.453,3.949c-.018.5-.019,1.025,0,1.593a23.5,23.5,0,0,0,.981,5.887.517.517,0,0,0,.317.24c.13.028.29-.052.665-.24Z" transform="translate(-1464.019 -5765.187)" fill="#94b7bd"/>
          </g>
          <path id="Trazado_419" data-name="Trazado 419" d="M1399.242,5872.387l-.981-1.309v-1.962l.654-3.271,1.309,1.635,1.308,1.963a1.91,1.91,0,0,1,.327,1.308,1.912,1.912,0,0,0,.327,1.309l.641,1.767.013,1.177-2.617-1.308Z" transform="translate(-1398.261 -5858.86)" fill="#94b7bd"/>
        </g>
      </g>
      <g id="Grupo_1109" data-name="Grupo 1109" transform="translate(3193.596 334.295)">
        <path id="Trazado_634" data-name="Trazado 634" d="M3618.128,502.432l8.561.207h3.073l2.634,2.195h5.707l2.634,2.2,2.195,3.512,2.2,6.146,1.317,2.195,2.634,2.634,3.951.878,1.755,1.317,1.755,5.268-.439,9.219-.439,6.585-2.195,2.634-5.834.783-29.724-.783Z" transform="translate(-3529.538 -487.932)" fill="#6ab97b"/>
        <path id="Trazado_635" data-name="Trazado 635" d="M3275.25,444.478h78.58v59.7h-84.285l-4.829-50.923,2.634-5.268,2.195-3.512Z" transform="translate(-3264.715 -444.478)" fill="#ffe7cf"/>
        <path id="Path_410-2" data-name="Path 410-2" d="M3409.956,671.618c-1.782,0-4.931-.057-6.42-.808a10.986,10.986,0,0,1-6.05-9.826c0-3.028,1.32-4.979,3.3-6.968,1.992-2.005,1.467-2.934,6.968-3.3,1.966-.131,4.647,1.062,6.521,1.862a2.958,2.958,0,0,1,1.288,1.068c1.662,2.456,3.192,3.871,3.192,7.34,0,3.122-.477,4.963-2.567,6.968C3414.214,669.844,3412.888,670.15,3409.956,671.618Z" transform="translate(-3364.267 -599.107)" fill="#94b7bd"/>
        <path id="Path_410-3" data-name="Path 410-3" d="M3664.687,671.618c-1.782,0-4.931-.057-6.42-.808a10.986,10.986,0,0,1-6.05-9.826c0-3.028,1.32-4.979,3.3-6.968,1.993-2.005,1.467-2.934,6.969-3.3,1.967-.131,4.647,1.062,6.522,1.862a2.957,2.957,0,0,1,1.287,1.068c1.663,2.456,3.193,3.871,3.193,7.34,0,3.122-.478,4.963-2.567,6.968C3668.945,669.844,3667.62,670.15,3664.687,671.618Z" transform="translate(-3555.265 -599.107)" fill="#94b7bd"/>
        <path id="Trazado_636" data-name="Trazado 636" d="M3661.244,546.356c-2.721-3.591-4.741-5.627-7.463-9.219-.506-.667-1.234-.451-.721.225l7.329,9.672a29.74,29.74,0,0,0-11.875.638c-.821.195-1.325.7-.478.64a86.828,86.828,0,0,1,13.648-.2C3662.151,548.153,3661.537,546.743,3661.244,546.356Z" transform="translate(-3551.801 -513.651)" fill="#3c4959"/>
      </g>
      <g id="Grupo_1096" data-name="Grupo 1096" transform="translate(3200.478 346.451)">
        <path id="Trazado_637" data-name="Trazado 637" d="M3292.8,494.865c7.443-.866,14.929-1.558,22.629-.708,2.124.234,4.333-.154,6.464,0,.778.056.652-.533-.12-.589a192.911,192.911,0,0,0-22.62-.311c-2.134.1-4.221.732-6.351.9C3292.031,494.218,3292.024,494.926,3292.8,494.865Z" transform="translate(-3292.222 -493.063)" fill="#3c4959"/>
      </g>
      <g id="Grupo_1097" data-name="Grupo 1097" transform="translate(3184.32 353.319)">
        <path id="Trazado_638" data-name="Trazado 638" d="M3228.218,522.318c7.442-.866,14.929-1.558,22.629-.708,2.124.235,4.333-.154,6.467,0,.777.056.652-.532-.12-.589a192.8,192.8,0,0,0-22.62-.31c-2.135.1-4.221.732-6.351.9-.775.061-.782.77,0,.708Z" transform="translate(-3227.639 -520.515)" fill="#3c4959"/>
      </g>
      <g id="Grupo_1098" data-name="Grupo 1098" transform="translate(3176.64 360.493)">
        <path id="Trazado_639" data-name="Trazado 639" d="M3197.527,551.494c7.442-.867,13.716-2.366,21.417-1.517,2.124.234-1.727-.154.4,0,.777.056.651-.532-.121-.588-7.525-.544-7.809.156-15.347.5-2.134.1-4.22.732-6.351.9-.775.06-.782.769,0,.709Z" transform="translate(-3196.945 -549.189)" fill="#3c4959"/>
      </g>
    </g>
  </g>
</svg>
