<svg xmlns="http://www.w3.org/2000/svg" width="241.712" height="200.999" viewBox="0 0 241.712 200.999">
  <g id="Illustration_2" data-name="Illustration 2" transform="translate(-2165 -274.634)">
    <path id="Trazado_641" data-name="Trazado 641" d="M2356.162,310.1l-19.929-16.574-10.8-6.682-7.847-5.993-15.552-6.22h-18.662l-20.994,6.22-16.329,7.776L2216.5,305.737l-15.552,26.438-.479,22.549,5.144,24.883,9.9,36.757,24.318,17.674,34.991,14.774,50.95-19.248,37.912-3.129,7.141-13.629,3.972-28.061-.444-19.91-6.22-32.658Z" transform="translate(-22.035 0)" fill="#ebf4ee"/>
    <g id="Grupo_1100" data-name="Grupo 1100" transform="translate(2216.234 318.179)">
      <path id="Trazado_642" data-name="Trazado 642" d="M2419.367,519.18l-1.5,3.1-3.647,2.267-57.36,22.523-4.049-.078-2.9-2.2-1.335-3.4L2301.022,420.3l-.739-1.916.778-3.11,2.051-1.645,59.3-23.287,3.96-.728,3.111,3.11,2.008,2.814,45.525,115.937,1.6,4.064Z" transform="translate(-2300.283 -389.612)" fill="#6ab97b"/>
      <path id="Trazado_643" data-name="Trazado 643" d="M2421.969,524.315l-1.5,2.625-3.434,2.026-53.471,20.994-3.706.1-2.566-1.7-1.083-2.758-38.6-98.3-.6-3.153.91-1.711,1.883-.74,55.286-21.708,2.94-1.154,2.657.311,2.507,4.772,36.955,94.112,1.3,3.3Z" transform="translate(-2310.67 -407.768)" fill="#ffe7cf"/>
      <path id="Path_410" data-name="Path 410" d="M2515.282,752.431a7.2,7.2,0,0,1-2.514.638,4.4,4.4,0,0,1-3.7-2.781,3.724,3.724,0,0,1,.21-3.084c.45-1.04.117-1.31,2.117-2.255a6.733,6.733,0,0,1,2.707-.261,1.189,1.189,0,0,1,.637.209c.98.673,1.759.977,2.267,2.272a3.311,3.311,0,0,1,.063,2.977A8.231,8.231,0,0,1,2515.282,752.431Z" transform="translate(-2429.85 -610.19)" fill="#ffe7cf"/>
      <path id="Trazado_644" data-name="Trazado 644" d="M2353.687,429.652l-.564.639-.423,1,.142.362.849.084.849.084.707-.278,1.414-.555,26.157-10.271.564-.639-.142-.361-.142-.362-.992-.447-1.555.194Z" transform="translate(-2332.849 -407.814)" fill="#ffe7cf"/>
    </g>
    <g id="Grupo_1101" data-name="Grupo 1101" transform="translate(2308.848 316.715)">
      <path id="Trazado_645" data-name="Trazado 645" d="M2545.729,388.543c11.543-1.344,23.156-2.417,35.1-1.1,3.294.363,6.721-.239,10.026,0,1.206.087,1.011-.826-.186-.913a299.235,299.235,0,0,0-35.085-.482c-3.311.15-6.546,1.136-9.851,1.395C2544.529,387.538,2544.519,388.637,2545.729,388.543Z" transform="translate(-2544.826 -385.747)" fill="#3c4959"/>
    </g>
    <g id="Grupo_1102" data-name="Grupo 1102" transform="translate(2350.059 334.599)">
      <path id="Trazado_646" data-name="Trazado 646" d="M2654.546,435.766c11.544-1.344,23.156-2.417,35.1-1.1,3.294.363,6.721-.239,10.026,0,1.206.087,1.011-.826-.186-.913a299.249,299.249,0,0,0-35.085-.482c-3.311.15-6.547,1.136-9.851,1.395C2653.347,434.761,2653.337,435.86,2654.546,435.766Z" transform="translate(-2653.644 -432.97)" fill="#3c4959"/>
    </g>
    <g id="Grupo_1103" data-name="Grupo 1103" transform="translate(2165 392.14)">
      <path id="Trazado_647" data-name="Trazado 647" d="M2165.9,587.7c11.544-1.344,23.156-2.417,35.1-1.1,3.294.363,6.721-.24,10.031,0,1.205.087,1.011-.827-.187-.913a299.323,299.323,0,0,0-35.085-.482c-3.31.15-6.546,1.136-9.85,1.4-1.2.094-1.214,1.193,0,1.1Z" transform="translate(-2165 -584.904)" fill="#3c4959"/>
    </g>
    <g id="Grupo_1104" data-name="Grupo 1104" transform="translate(2290.508 347.063)">
      <g id="Group_2671" data-name="Group 2671" transform="translate(-2351.098 -516.059)">
        <g id="tomate" transform="translate(2417.329 529.283)">
          <path id="Path_427" data-name="Path 427" d="M1499.834,434.247c.095-9.346,3.181-14.9,17.7-19.249a14.859,14.859,0,0,1,9.629.482c14.3,6.448,23.9,12.936,22.511,23.6a28.939,28.939,0,0,1-9.512,16.844c-4.971,3.944-10.64,4.546-17.814,3.852a33.466,33.466,0,0,1-4.814-.482C1506.064,456.272,1499.718,445.81,1499.834,434.247Z" transform="translate(-1499.833 -400.793)" fill="#fd6769"/>
          <path id="Path_428" data-name="Path 428" d="M1569.362,367.583s1.926,0,7.222-8.184c-2.888,2.405-12.276,3.611-12.276,3.611a62.2,62.2,0,0,1,1.681-10.832c-2.2,0-4.814,1.925-6.087,6.313l-.653,3.315s-13.481-3.852-15.887-.482a27.153,27.153,0,0,1,9.629,3.37c-10.56,2.455-11.782,5.927-13,6.74,6.259-2.889,3.852-2.889,16.128-2.166,1.565,3.912.482,8.665-1.245,12.331a13.565,13.565,0,0,0,.283,3.556c4.574-3.13,9.147-13.962,9.147-13.962s4.333,1.445,12.036,10.592C1577.787,376.49,1569.362,367.583,1569.362,367.583Z" transform="translate(-1531.201 -352.177)" fill="#94b7bd"/>
        </g>
        <g id="bananas" transform="translate(2366.183 554.214)">
          <g id="Group_982" data-name="Group 982" transform="translate(0 5.278)">
            <path id="Path_404" data-name="Path 404" d="M1306.743,492.316c-.8-1.332-2.34-2.41-3.745-2.078-.491.116-.979.831-1.4,1.182a7,7,0,0,0-2.226,3.654c-1.3,4.833-2.033,13.571-4.632,18.591s-6.4,13.2-11.42,15.251a98.06,98.06,0,0,1-10.692,3.517c-.055.014-.1.024-.16.034-.544.088-3.942.7-5.222,2.409a4.269,4.269,0,0,0-1.031,1.936,2.169,2.169,0,0,0,.58,1.9,13.554,13.554,0,0,0,8.73,2.937c5.948-.19,14.592-.1,18.029-1.593s9.475-5.677,11.8-10.325a49.88,49.88,0,0,0,5-18.311c.367-6.693-.91-8.646-1.59-13.383A15.393,15.393,0,0,0,1306.743,492.316Z" transform="translate(-1266.183 -490.177)" fill="#fdce51"/>
            <g id="Group_981" data-name="Group 981" transform="translate(0.669 0.181)">
              <path id="Path_405" data-name="Path 405" d="M1305.708,491.672a48.624,48.624,0,0,1,1.792,14.114c-.19,4.865-1.921,9.4-4.083,13.7a37.953,37.953,0,0,1-7.181,10.328,25.979,25.979,0,0,1-11.429,6.148c-4.977,1.38-10.419,1.656-15.547,2a2.333,2.333,0,0,0,0,.62c9.033-.6,19.3-.635,26.548-6.75a35.013,35.013,0,0,0,7.976-10.432,39.055,39.055,0,0,0,4.756-13.554c.693-5.729-1.087-11.308-2.458-16.843a.717.717,0,0,0-.413.207Z" transform="translate(-1269.24 -491.003)"/>
            </g>
          </g>
          <g id="Group_984" data-name="Group 984" transform="translate(34.172 4.609)">
            <path id="Path_406" data-name="Path 406" d="M1429.916,487.583c-1.787-.732-4.129-.656-5.281.723-.4.483-.356,1.559-.51,2.217a8.718,8.718,0,0,0,.51,5.3c2.314,5.784,8.1,15.038,9.254,21.98s3.47,17.93,0,23.711A122.036,122.036,0,0,1,1425.86,553a1.779,1.779,0,0,1-.135.154c-.477.495-3.405,3.639-3.405,6.3a5.309,5.309,0,0,0,.417,2.7,2.7,2.7,0,0,0,2,1.463,16.879,16.879,0,0,0,10.889-3.586c5.783-4.627,14.459-10.989,16.773-15.038s5.2-12.725,4.049-19.087a62.055,62.055,0,0,0-8.676-21.979c-4.626-6.941-7.357-7.935-11.568-12.146A19.166,19.166,0,0,0,1429.916,487.583Z" transform="translate(-1422.29 -487.123)" fill="#fdce51"/>
            <g id="Group_983" data-name="Group 983" transform="translate(1.068 0.601)">
              <path id="Path_407" data-name="Path 407" d="M1431.344,493.927a55.6,55.6,0,0,1,15.639,24.329c2.855,9.667,2.3,20.646-2.9,29.543-2.847,4.879-13.015,13.243-16.919,17.278l.346.346c4.049-2.314,14.129-11.645,16.964-16.02a33.445,33.445,0,0,0,5.15-14.447c1.168-10.106-2.234-20.712-7.278-29.445-2.76-4.779-6.346-8.435-9.815-12.727a16.283,16.283,0,0,0-3.512-2.915l-.578.579Z" transform="translate(-1427.167 -489.869)"/>
            </g>
          </g>
          <path id="Path_408" data-name="Path 408" d="M1418.546,471.859l-4.055-1.738,1.159-2.9,4.054-1.158-.579,5.213Z" transform="translate(-1382.026 -466.066)"/>
        </g>
      </g>
      <path id="Path_409" data-name="Path 409" d="M2496.4,515.485c0-7.088.227-19.617,3.215-25.539a43.7,43.7,0,0,1,39.1-24.066c12.043,0,19.806,5.252,27.72,13.129,7.969,7.927,11.671,5.832,13.128,27.72.522,7.825-4.225,18.489-7.406,25.947a11.781,11.781,0,0,1-4.246,5.123c-9.766,6.609-15.4,12.7-29.2,12.7-12.422,0-19.75-1.9-27.719-10.213C2503.454,532.426,2502.236,527.157,2496.4,515.485Z" transform="translate(-2496.401 -465.881)" fill="#94b7bd"/>
      <path id="Trazado_648" data-name="Trazado 648" d="M2684.43,646.524l13.579,10.362,3.88,4.145,12.908,10.482,10.121,7.591,4.217-2.53-7.591-5.06-17.712-16.7-10.964-8.6-8.438-5.906Z" transform="translate(-2613.22 -574.246)" fill="#94b7bd"/>
      <path id="Path_409-2" data-name="Path 409-2" d="M2514.633,525.793c0-5.91.19-16.361,2.682-21.3a36.447,36.447,0,0,1,32.606-20.071c10.045,0,16.52,4.38,23.12,10.95,6.647,6.609,9.735,4.867,10.95,23.12.435,6.527-3.525,15.422-6.178,21.642a9.813,9.813,0,0,1-3.542,4.272c-8.145,5.515-12.842,10.591-24.352,10.591-10.36,0-16.475-1.586-23.12-8.517C2520.514,539.922,2519.5,535.526,2514.633,525.793Z" transform="translate(-2507.729 -477.399)" fill="#f7ffde"/>
    </g>
  </g>
</svg>
