<svg xmlns="http://www.w3.org/2000/svg" width="189.86" height="149.276" viewBox="0 0 189.86 149.276">
  <g id="Illustration_3" data-name="Illustration 3" transform="translate(-3176.64 -293.457)">
    <path id="Trazado_633" data-name="Trazado 633" d="M3235.984,719.3l2.093,6.693-1.045,2.789,1.045,6.693h176.114V715.951l-9.407,3.9-12.021,2.231L3243.3,719.3Z" transform="translate(-47.691 -292.74)" fill="#f7ffde"/>
    <g id="Illustration_Fruits_Eggplant" data-name="Illustration Fruits Eggplant" transform="translate(924.755 -3254.313)">
      <path id="Trazado_432" data-name="Trazado 432" d="M2310.858,3615.6c-4.225,41.784-8.92,38.029-7.277,48.592.978,6.287,10.562,16.38,22.065,12.675,13.85-4.46,15.155-12.99,16.2-19.484,1.364-8.5-12.207-30.986-20.657-41.784C2316.9,3610.129,2311.3,3611.228,2310.858,3615.6Z" transform="translate(0 -57.74)" fill="#94b7bd"/>
      <ellipse id="Elipse_371" data-name="Elipse 371" cx="0.704" cy="1.174" rx="0.704" ry="1.174" transform="translate(2311.561 3583.449)" fill="#fff"/>
      <ellipse id="Elipse_372" data-name="Elipse 372" cx="0.704" cy="1.174" rx="0.704" ry="1.174" transform="translate(2309.213 3593.308)" fill="#fff"/>
      <ellipse id="Elipse_373" data-name="Elipse 373" cx="0.704" cy="1.174" rx="0.704" ry="1.174" transform="translate(2313.439 3605.046)" fill="#fff"/>
      <ellipse id="Elipse_374" data-name="Elipse 374" cx="0.704" cy="1.174" rx="0.704" ry="1.174" transform="translate(2308.274 3602.698)" fill="#fff"/>
      <ellipse id="Elipse_375" data-name="Elipse 375" cx="0.704" cy="1.174" rx="0.704" ry="1.174" transform="translate(2319.073 3602.698)" fill="#fff"/>
      <ellipse id="Elipse_376" data-name="Elipse 376" cx="0.704" cy="1.174" rx="0.704" ry="1.174" transform="translate(2316.725 3611.149)" fill="#fff"/>
      <ellipse id="Elipse_377" data-name="Elipse 377" cx="0.704" cy="1.174" rx="0.704" ry="1.174" transform="translate(2315.786 3596.125)" fill="#fff"/>
      <path id="Trazado_433" data-name="Trazado 433" d="M2328.745,3549.177c.469.939,1.647,1.639,1.878,2.817a3.3,3.3,0,0,1,0,2.347c-1.253,2.334-.939,2.817-2.348,5.634-.458.914-1.82,1.514-2.817,2.347a3.663,3.663,0,0,0,2.817,1.409c.933,0,1.512-1.356,2.348-.939,1.263.632,1.642,1.788,2.647,2.773a.678.678,0,0,0,1.147-.455,56.179,56.179,0,0,0-.527-7,5.308,5.308,0,0,1,2.03,2.577.205.205,0,0,0,.393-.02,12.054,12.054,0,0,0,.28-4.149,11.236,11.236,0,0,1,3.484,3.639.41.41,0,0,0,.693.014c1.046-1.569,2.41-3.036,4.24-3.337-1.884-.367-3.7-2.2-5.466-2.958s-3.489-.476-4.455-2.135a.6.6,0,0,1-.1-.268.631.631,0,0,1,.135-.347l1.63-2.53c-.028-.354-.028-.354-.462-.792-.936.378-1.912-.032-2.852-.032a3.79,3.79,0,0,1-2.817.47Z" transform="translate(-20.002)"/>
    </g>
    <g id="Illustration_Fruits_Watermelon" data-name="Illustration Fruits Watermelon" transform="translate(5348.055 -1152.756) rotate(59)">
      <path id="Trazado_402" data-name="Trazado 402" d="M150.282,2586.2s-2.9-1.242-2.9.828,2.9,7.862,2.9,7.862,5.793,7.035,9.931,8.69,13.656,4.966,16.139,4.966,9.931-.414,13.242-2.069,8.69-5.793,10.346-8.276,5.379-8.69,6.207-12.414a76.636,76.636,0,0,0,1.656-9.518v-4.138s-2.9-1.655-2.9,0-51.313,15.311-51.313,15.311Z" fill="#94b7bd"/>
      <path id="Trazado_403" data-name="Trazado 403" d="M180.382,2595.105s19.219-7.391,26.07-9.1c6.8-1.7,28.553-4.551,28.553-4.551s.414-1.655,0,2.9-2.9,12-2.9,12-.414,4.966-5.793,10.345-7.448,6.621-12,7.035-13.656.414-18.62-2.9-10.759-5.793-12.828-8.69A16.814,16.814,0,0,1,180.382,2595.105Z" transform="translate(-30.1 -8.901)" fill="#ff9ea3"/>
      <ellipse id="Elipse_358" data-name="Elipse 358" cx="0.828" cy="1.625" rx="0.828" ry="1.625" transform="translate(181.576 2589.48) rotate(-19.324)"/>
      <ellipse id="Elipse_359" data-name="Elipse 359" cx="0.828" cy="1.625" rx="0.828" ry="1.625" transform="translate(168.748 2588.652) rotate(-19.324)"/>
      <ellipse id="Elipse_360" data-name="Elipse 360" cx="0.828" cy="1.625" rx="0.828" ry="1.625" transform="translate(177.024 2585.756) rotate(-19.324)"/>
      <ellipse id="Elipse_361" data-name="Elipse 361" cx="0.828" cy="1.625" rx="0.828" ry="1.625" transform="translate(174.955 2590.722) rotate(-19.324)"/>
      <ellipse id="Elipse_362" data-name="Elipse 362" cx="0.828" cy="1.625" rx="0.828" ry="1.625" transform="translate(183.645 2584.928) rotate(-19.324)"/>
    </g>
    <g id="Illustration_Fruits_Grapes" data-name="Illustration Fruits Grapes" transform="translate(2005 -5471.729)">
      <path id="Trazado_412" data-name="Trazado 412" d="M1577.23,6061.586c-.147-1.669.058-1.535.928-2.823,1.144-1.694,3.261-4.595,5.457-4.786,2.827-.247,2.755.15,5.223,1.5.858.47,2.3,3.847,2.386,4.884a7.214,7.214,0,0,1-1.924,4.868,6.12,6.12,0,0,1-4.461,2.741,5.7,5.7,0,0,1-3.6-.859A7.479,7.479,0,0,1,1577.23,6061.586Z" transform="translate(-307.406 -264.82)" fill="#6790c2"/>
      <path id="Trazado_413" data-name="Trazado 413" d="M1402.816,6099.3c-.146-1.669.058-1.535.928-2.824,1.144-1.694,3.261-4.594,5.457-4.786,2.827-.247,2.755.15,5.223,1.5.858.469,2.3,3.846,2.386,4.884a7.217,7.217,0,0,1-1.924,4.869,6.121,6.121,0,0,1-4.461,2.741,5.7,5.7,0,0,1-3.6-.86A7.476,7.476,0,0,1,1402.816,6099.3Z" transform="translate(-147.43 -299.41)" fill="#6790c2"/>
      <path id="Trazado_414" data-name="Trazado 414" d="M1461.87,6389.669c-.127-1.449.05-1.333.806-2.451.993-1.471,2.832-3.99,4.739-4.157,2.455-.214,2.392.131,4.536,1.3.745.408,1.993,3.34,2.072,4.241a6.27,6.27,0,0,1-1.671,4.229,5.315,5.315,0,0,1-3.874,2.38,4.947,4.947,0,0,1-3.127-.748A6.486,6.486,0,0,1,1461.87,6389.669Z" transform="translate(-201.601 -566.67)" fill="#fed9db"/>
      <path id="Trazado_415" data-name="Trazado 415" d="M1253.239,6129.25c1.283,1.077,1.044,1.126,1.34,2.653.389,2.007.943,5.555-.474,7.243-1.824,2.174-2.057,1.842-4.756,2.632-.938.274-4.342-1.1-5.14-1.766a7.223,7.223,0,0,1-2.083-4.8,6.123,6.123,0,0,1,1.217-5.092,5.693,5.693,0,0,1,3.154-1.937A7.486,7.486,0,0,1,1253.239,6129.25Z" transform="translate(0 -332.626)" fill="#6790c2"/>
      <path id="Trazado_416" data-name="Trazado 416" d="M1365.25,6263.518c.146,1.669-.058,1.535-.928,2.824-1.144,1.694-3.261,4.594-5.457,4.786-2.827.247-2.755-.151-5.223-1.5-.858-.469-2.3-3.846-2.386-4.884a7.218,7.218,0,0,1,1.924-4.869,6.12,6.12,0,0,1,4.461-2.741,5.7,5.7,0,0,1,3.6.86A7.47,7.47,0,0,1,1365.25,6263.518Z" transform="translate(-100.163 -451.197)" fill="#6790c2"/>
      <path id="Trazado_417" data-name="Trazado 417" d="M1540.8,6228.24c1.283,1.078,1.044,1.127,1.34,2.653.389,2.007.943,5.555-.474,7.243-1.824,2.174-2.057,1.842-4.756,2.632-.938.274-4.342-1.1-5.14-1.767-1.416-1.188-1.872-3.1-2.083-4.8a6.123,6.123,0,0,1,1.217-5.092,5.7,5.7,0,0,1,3.154-1.938A7.488,7.488,0,0,1,1540.8,6228.24Z" transform="translate(-263.751 -423.422)" fill="#6790c2"/>
      <g id="Grupo_988" data-name="Grupo 988" transform="translate(1254.969 5765.187)">
        <g id="Grupo_987" data-name="Grupo 987" transform="translate(5.444)">
          <path id="Trazado_418" data-name="Trazado 418" d="M1466.379,5790.689c-1.464-3.7-.9-9.508,0-13.268a38.117,38.117,0,0,1,4.761-10.721c-.078-1.377-1.04-2.062-1.685-.984a47.32,47.32,0,0,0-4.88,12.117,37.417,37.417,0,0,0-.54,4.712c-.022.6-.023,1.223,0,1.9a28.046,28.046,0,0,0,1.17,7.023.617.617,0,0,0,.378.286c.155.033.346-.062.793-.286Z" transform="translate(-1464.019 -5765.187)" fill="#94b7bd"/>
        </g>
        <path id="Trazado_419" data-name="Trazado 419" d="M1399.431,5873.649l-1.17-1.561v-2.341l.781-3.9,1.561,1.951,1.561,2.342a2.279,2.279,0,0,1,.39,1.561,2.282,2.282,0,0,0,.39,1.561l.765,2.107.016,1.4-3.122-1.561Z" transform="translate(-1398.261 -5857.512)" fill="#94b7bd"/>
      </g>
    </g>
    <g id="Grupo_1109" data-name="Grupo 1109" transform="translate(3196.869 342.178)">
      <path id="Trazado_634" data-name="Trazado 634" d="M3618.171,502.432l10.213.247h3.666l3.143,2.618H3642l3.143,2.619,2.618,4.19,2.619,7.333,1.571,2.618,3.142,3.142,4.714,1.047,2.093,1.571,2.093,6.285-.524,11-.524,7.856-2.619,3.142-6.96.934-35.462-.934Z" transform="translate(-3512.479 -485.133)" fill="#6ab97b"/>
      <path id="Trazado_635" data-name="Trazado 635" d="M3277.283,444.478h93.749v71.229H3270.477l-5.761-60.753,3.142-6.285,2.618-4.19Z" transform="translate(-3264.715 -444.478)" fill="#ffe7cf"/>
      <path id="Path_410-2" data-name="Path 410-2" d="M3412.363,675.654c-2.126,0-5.883-.068-7.659-.964a13.106,13.106,0,0,1-7.218-11.723c0-3.612,1.575-5.94,3.938-8.313,2.376-2.392,1.75-3.5,8.313-3.937,2.346-.157,5.544,1.267,7.78,2.221a3.531,3.531,0,0,1,1.537,1.274c1.983,2.931,3.808,4.618,3.808,8.756,0,3.725-.57,5.921-3.063,8.313C3417.443,673.539,3415.861,673.9,3412.363,675.654Z" transform="translate(-3357.855 -589.147)" fill="#94b7bd"/>
      <path id="Path_410-3" data-name="Path 410-3" d="M3667.094,675.654c-2.126,0-5.883-.068-7.659-.964a13.107,13.107,0,0,1-7.218-11.723c0-3.612,1.575-5.94,3.937-8.313,2.377-2.392,1.75-3.5,8.314-3.937,2.346-.157,5.544,1.267,7.781,2.221a3.527,3.527,0,0,1,1.536,1.274c1.984,2.931,3.809,4.618,3.809,8.756,0,3.725-.57,5.921-3.063,8.313C3672.174,673.539,3670.593,673.9,3667.094,675.654Z" transform="translate(-3536.55 -589.147)" fill="#94b7bd"/>
      <path id="Trazado_636" data-name="Trazado 636" d="M3663.878,548.214c-3.247-4.285-5.657-6.714-8.9-11-.6-.8-1.472-.538-.86.269l8.744,11.539a35.481,35.481,0,0,0-14.167.761c-.979.233-1.581.831-.57.764a103.58,103.58,0,0,1,16.282-.239C3664.96,550.358,3664.228,548.675,3663.878,548.214Z" transform="translate(-3533.309 -509.195)" fill="#3c4959"/>
    </g>
    <g id="Grupo_1096" data-name="Grupo 1096" transform="translate(3205.08 356.68)">
      <path id="Trazado_637" data-name="Trazado 637" d="M3292.916,495.213c8.879-1.033,17.811-1.859,27-.845,2.534.279,5.17-.184,7.712,0,.927.067.778-.636-.143-.7a230.155,230.155,0,0,0-26.986-.371c-2.546.115-5.035.874-7.577,1.073C3291.994,494.441,3291.986,495.286,3292.916,495.213Z" transform="translate(-3292.222 -493.063)" fill="#3c4959"/>
    </g>
    <g id="Grupo_1097" data-name="Grupo 1097" transform="translate(3185.802 364.875)">
      <path id="Trazado_638" data-name="Trazado 638" d="M3228.33,522.666c8.879-1.034,17.811-1.859,27-.845,2.533.28,5.17-.184,7.715,0,.927.067.778-.635-.143-.7a230.009,230.009,0,0,0-26.986-.37c-2.547.115-5.035.874-7.577,1.072-.925.073-.933.918,0,.845Z" transform="translate(-3227.639 -520.515)" fill="#3c4959"/>
    </g>
    <g id="Grupo_1098" data-name="Grupo 1098" transform="translate(3176.64 373.434)">
      <path id="Trazado_639" data-name="Trazado 639" d="M3197.64,551.939c8.879-1.034,16.364-2.823,25.55-1.81,2.534.28-2.06-.184.482,0,.927.067.777-.635-.144-.7-8.978-.649-9.316.186-18.309.593-2.547.115-5.035.874-7.577,1.073-.925.072-.933.918,0,.846Z" transform="translate(-3196.946 -549.189)" fill="#3c4959"/>
    </g>
  </g>
</svg>
