<svg id="money-exchange_1_" data-name="money-exchange (1)" xmlns="http://www.w3.org/2000/svg" width="9.997" height="9.676" viewBox="0 0 9.997 9.676">
  <g id="Group_3227" data-name="Group 3227">
    <g id="Group_3226" data-name="Group 3226" transform="translate(0 0)">
      <path id="Path_2178" data-name="Path 2178" d="M132.77,87.287a1.383,1.383,0,0,1-.613-.337.349.349,0,0,0-.493,0l-.027.027a.348.348,0,0,0,0,.5,2.23,2.23,0,0,0,1.15.57l.042.007v.329a.349.349,0,0,0,.348.348h.039a.349.349,0,0,0,.348-.348v-.337l.041-.008a1.241,1.241,0,0,0,1.151-1.2c.006-.839-.615-1.145-1.156-1.318l-.035-.011V84.373l.062.013a1.39,1.39,0,0,1,.412.154.348.348,0,0,0,.475-.114l.018-.028a.348.348,0,0,0-.115-.483,2.254,2.254,0,0,0-.808-.279l-.043-.007v-.249a.349.349,0,0,0-.348-.348h-.039a.349.349,0,0,0-.348.348v.267l-.041.008a1.16,1.16,0,0,0-1.063,1.117c0,.605.35,1.018,1.07,1.262l.034.012V87.3Zm.8-1,.071.031c.282.124.387.263.384.513,0,.209-.131.357-.389.442l-.066.022V86.283Zm-.811-1.066a.455.455,0,0,1-.293-.443c0-.157.1-.273.3-.347l.068-.025v.855Z" transform="translate(-128.204 -81.09)" fill="#fff"/>
      <path id="Path_2179" data-name="Path 2179" d="M21.782,8.088a.325.325,0,0,0-.36-.031l-.685.377a4.635,4.635,0,0,0-8.521,2.528.507.507,0,1,0,1.013,0,3.623,3.623,0,0,1,6.617-2.038l-.641.353a.325.325,0,0,0,.066.6l1.718.5a.325.325,0,0,0,.4-.222l.5-1.718A.325.325,0,0,0,21.782,8.088Z" transform="translate(-11.908 -6.327)" fill="#fff"/>
      <path id="Path_2180" data-name="Path 2180" d="M9.181,185.327a.507.507,0,0,0-.507.507,3.623,3.623,0,0,1-6.617,2.038l.641-.353a.325.325,0,0,0-.066-.6l-1.718-.5a.325.325,0,0,0-.4.222l-.5,1.718a.325.325,0,0,0,.469.375l.685-.377a4.635,4.635,0,0,0,8.521-2.528A.507.507,0,0,0,9.181,185.327Z" transform="translate(0 -180.793)" fill="#fff"/>
    </g>
  </g>
</svg>
