<svg xmlns="http://www.w3.org/2000/svg" width="27.31" height="21.845" viewBox="0 0 27.31 21.845">
  <path id="shopping-basket-solid" d="M27.31,40.969v.78a1.154,1.154,0,0,1-1.138,1.17h-.379l-1.238,8.913a2.3,2.3,0,0,1-2.253,2.01H5.008a2.3,2.3,0,0,1-2.253-2.01L1.517,42.92H1.138A1.154,1.154,0,0,1,0,41.749v-.78A1.154,1.154,0,0,1,1.138,39.8H4.331L9.393,32.64a1.49,1.49,0,0,1,2.119-.344,1.589,1.589,0,0,1,.335,2.18L8.083,39.8H19.227l-3.765-5.324A1.589,1.589,0,0,1,15.8,32.3a1.49,1.49,0,0,1,2.119.344L22.979,39.8h3.193A1.154,1.154,0,0,1,27.31,40.969ZM14.793,49.551V44.09a1.138,1.138,0,1,0-2.276,0v5.461a1.138,1.138,0,1,0,2.276,0Zm5.31,0V44.09a1.138,1.138,0,1,0-2.276,0v5.461a1.138,1.138,0,1,0,2.276,0Zm-10.62,0V44.09a1.138,1.138,0,1,0-2.276,0v5.461a1.138,1.138,0,1,0,2.276,0Z" transform="translate(0 -31.997)" fill="#fff"/>
</svg>
