<svg xmlns="http://www.w3.org/2000/svg" width="20.117" height="20.999" viewBox="0 0 20.117 20.999">
  <g id="Group_11" data-name="Group 11" transform="translate(-37 -779)">
    <path id="_21_Home" data-name="21 Home" d="M15.444,21H4.671a2.623,2.623,0,0,1-1.732-.641,2.09,2.09,0,0,1-.717-1.546V9.992H1.463A1.469,1.469,0,0,1,.106,9.167,1.21,1.21,0,0,1,.45,7.734L9.039.367a1.6,1.6,0,0,1,2.037,0l8.59,7.367a1.211,1.211,0,0,1,.343,1.436,1.471,1.471,0,0,1-1.361.821h-.754v8.821A2.331,2.331,0,0,1,15.444,21Zm-5.387-9.187A1.865,1.865,0,0,0,8.1,13.562a1.865,1.865,0,0,0,1.958,1.75,1.866,1.866,0,0,0,1.959-1.75A1.866,1.866,0,0,0,10.057,11.812Z" transform="translate(37.001 779)" fill="#e3e7eb"/>
  </g>
</svg>
