<svg xmlns="http://www.w3.org/2000/svg" width="20.041" height="22.321" viewBox="0 0 20.041 22.321">
  <g id="_593f97bfd18d8522c1e8d8e49fc3ad7c" data-name="593f97bfd18d8522c1e8d8e49fc3ad7c" transform="translate(-40.35 -9.85)">
    <path id="Path_4" data-name="Path 4" d="M57.4,31.921H43.337A2.6,2.6,0,0,1,40.6,29.057v-15.5a2.462,2.462,0,0,1,2.605-2.779h1.629c.366,0,.5.225.5.608s-.136.755-.5.755H43.205A1.263,1.263,0,0,0,41.9,13.5V29.191a1.547,1.547,0,0,0,1.629,1.363h14a1.265,1.265,0,0,0,1.3-1.363V13.507a1.264,1.264,0,0,0-1.3-1.363h-1.3a.86.86,0,0,1-.8-.755c0-.383.432-.608.8-.608h1.3a2.521,2.521,0,0,1,2.605,2.779v15.5A2.522,2.522,0,0,1,57.4,31.921ZM45.485,24.083h9.779a.678.678,0,0,1,0,1.354H45.485a.678.678,0,0,1,0-1.354Zm0-4.093h9.779a.678.678,0,0,1,0,1.354H45.485a.678.678,0,0,1,0-1.354Zm10.426-3.071a.662.662,0,0,1-.647.677H45.485a.678.678,0,0,1,0-1.354h9.779A.659.659,0,0,1,55.911,16.919Zm-3.282-4.436H48.108a1.11,1.11,0,0,1-1-1.191,1.108,1.108,0,0,1,1-1.191h4.522a1.11,1.11,0,0,1,1,1.191A1.108,1.108,0,0,1,52.629,12.483Z" transform="translate(0)" fill="#e3e7eb" stroke="#e3e7eb" stroke-width="0.5"/>
  </g>
</svg>
