<svg xmlns="http://www.w3.org/2000/svg" width="23" height="23" viewBox="0 0 23 23">
  <path id="headset-solid" d="M8.625,9.344A1.438,1.438,0,0,0,7.188,7.906H6.469a2.875,2.875,0,0,0-2.875,2.875v2.156a2.875,2.875,0,0,0,2.875,2.875h.719a1.438,1.438,0,0,0,1.438-1.437Zm7.906,6.469a2.875,2.875,0,0,0,2.875-2.875V10.781a2.875,2.875,0,0,0-2.875-2.875h-.719a1.438,1.438,0,0,0-1.437,1.438v5.031a1.438,1.438,0,0,0,1.438,1.438ZM11.5,0A11.718,11.718,0,0,0,0,11.5v.719a.719.719,0,0,0,.719.719h.719a.719.719,0,0,0,.719-.719V11.5a9.344,9.344,0,0,1,18.688,0h-.005c0,.109.005,7.444.005,7.444a1.9,1.9,0,0,1-1.9,1.9H14.375a2.156,2.156,0,0,0-2.156-2.156H10.781a2.156,2.156,0,0,0,0,4.313h8.163A4.056,4.056,0,0,0,23,18.944V11.5A11.718,11.718,0,0,0,11.5,0Z" fill="#e3e7eb"/>
</svg>
