<svg xmlns="http://www.w3.org/2000/svg" width="19.745" height="21.99" viewBox="0 0 19.745 21.99">
  <g id="_593f97bfd18d8522c1e8d8e49fc3ad7c" data-name="593f97bfd18d8522c1e8d8e49fc3ad7c" transform="translate(-40.35 -9.85)">
    <path id="Path_4" data-name="Path 4" d="M57.149,31.59H43.3a2.562,2.562,0,0,1-2.7-2.82V13.506a2.425,2.425,0,0,1,2.566-2.737h1.6c.36,0,.494.222.494.6s-.134.743-.494.743h-1.6a1.244,1.244,0,0,0-1.282,1.342V28.9a1.524,1.524,0,0,0,1.6,1.342H57.279A1.246,1.246,0,0,0,58.563,28.9V13.455a1.245,1.245,0,0,0-1.284-1.342H56a.847.847,0,0,1-.785-.743c0-.377.425-.6.785-.6h1.282a2.483,2.483,0,0,1,2.566,2.737V28.772A2.484,2.484,0,0,1,57.149,31.59ZM45.411,23.87h9.631a.667.667,0,0,1,0,1.333H45.411a.667.667,0,0,1,0-1.333Zm0-4.031h9.631a.667.667,0,0,1,0,1.333H45.411a.667.667,0,0,1,0-1.333Zm10.268-3.024a.652.652,0,0,1-.637.667H45.411a.667.667,0,0,1,0-1.333h9.631A.649.649,0,0,1,55.679,16.815Zm-3.232-4.369H47.994a1.093,1.093,0,0,1-.984-1.173,1.091,1.091,0,0,1,.984-1.173h4.453a1.093,1.093,0,0,1,.984,1.173A1.091,1.091,0,0,1,52.447,12.447Z" transform="translate(0)" fill="#f88518" stroke="#f88518" stroke-width="0.5"/>
  </g>
</svg>
